<?xml version="1.0" encoding="UTF-8"?>
<svg xmlns="http://www.w3.org/2000/svg" xmlns:xlink="http://www.w3.org/1999/xlink" width="308.589579" height="226.237508" viewBox="0 0 308.589579 226.237508" version="1.1">
<g id="surface1">
<path style=" stroke:none;fill-rule:nonzero;fill:rgb(100%,100%,100%);fill-opacity:1;" d="M 0 226.238281 L 308.589844 226.238281 L 308.589844 0 L 0 0 Z M 0 226.238281 "/>
<path style=" stroke:none;fill-rule:nonzero;fill:rgb(100%,100%,100%);fill-opacity:1;" d="M 38.589844 194.398438 L 298.988281 194.398438 L 298.988281 9.601562 L 38.589844 9.601562 Z M 38.589844 194.398438 "/>
<path style="fill-rule:nonzero;fill:rgb(12.156863%,46.666667%,70.588237%);fill-opacity:1;stroke-width:1;stroke-linecap:butt;stroke-linejoin:round;stroke:rgb(12.156863%,46.666667%,70.588237%);stroke-opacity:1;stroke-miterlimit:4;" d="M -0.000297546 3.001266 C 0.796577 3.001266 1.558296 2.68486 2.120796 2.12236 C 2.683296 1.55986 2.999702 0.795212 2.999702 0.00126648 C 2.999702 -0.795609 2.683296 -1.557327 2.120796 -2.122757 C 1.558296 -2.685257 0.796577 -2.998734 -0.000297546 -2.998734 C -0.794243 -2.998734 -1.558891 -2.685257 -2.121391 -2.122757 C -2.683891 -1.557327 -3.000298 -0.795609 -3.000298 0.00126648 C -3.000298 0.795212 -2.683891 1.55986 -2.121391 2.12236 C -1.558891 2.68486 -0.794243 3.001266 -0.000297546 3.001266 Z M -0.000297546 3.001266 " transform="matrix(1.333333,0,0,1.333333,157.820709,113.568624)"/>
<path style="fill-rule:nonzero;fill:rgb(12.156863%,46.666667%,70.588237%);fill-opacity:1;stroke-width:1;stroke-linecap:butt;stroke-linejoin:round;stroke:rgb(12.156863%,46.666667%,70.588237%);stroke-opacity:1;stroke-miterlimit:4;" d="M 0.000793457 2.999878 C 0.794739 2.999878 1.559387 2.683472 2.121887 2.120972 C 2.684387 1.558472 3.000793 0.796753 3.000793 -0.00012207 C 3.000793 -0.796997 2.684387 -1.558716 2.121887 -2.121216 C 1.559387 -2.683716 0.794739 -3.000122 0.000793457 -3.000122 C -0.796082 -3.000122 -1.5578 -2.683716 -2.1203 -2.121216 C -2.6828 -1.558716 -2.999207 -0.796997 -2.999207 -0.00012207 C -2.999207 0.796753 -2.6828 1.558472 -2.1203 2.120972 C -1.5578 2.683472 -0.796082 2.999878 0.000793457 2.999878 Z M 0.000793457 2.999878 " transform="matrix(1.333333,0,0,1.333333,154.194255,141.257975)"/>
<path style="fill-rule:nonzero;fill:rgb(12.156863%,46.666667%,70.588237%);fill-opacity:1;stroke-width:1;stroke-linecap:butt;stroke-linejoin:round;stroke:rgb(12.156863%,46.666667%,70.588237%);stroke-opacity:1;stroke-miterlimit:4;" d="M 0.000152588 3.000969 C 0.797028 3.000969 1.558746 2.684563 2.121246 2.122063 C 2.683746 1.559563 3.000153 0.794914 3.000153 0.000968933 C 3.000153 -0.795906 2.683746 -1.557625 2.121246 -2.120125 C 1.558746 -2.682625 0.797028 -2.999031 0.000152588 -2.999031 C -0.796722 -2.999031 -1.558441 -2.682625 -2.120941 -2.120125 C -2.683441 -1.557625 -2.999847 -0.795906 -2.999847 0.000968933 C -2.999847 0.794914 -2.683441 1.559563 -2.120941 2.122063 C -1.558441 2.684563 -0.796722 3.000969 0.000152588 3.000969 Z M 0.000152588 3.000969 " transform="matrix(1.333333,0,0,1.333333,164.874797,128.522146)"/>
<path style="fill-rule:nonzero;fill:rgb(12.156863%,46.666667%,70.588237%);fill-opacity:1;stroke-width:1;stroke-linecap:butt;stroke-linejoin:round;stroke:rgb(12.156863%,46.666667%,70.588237%);stroke-opacity:1;stroke-miterlimit:4;" d="M -0.000900269 2.999634 C 0.795975 2.999634 1.557693 2.683228 2.120193 2.120728 C 2.682693 1.558228 2.9991 0.796509 2.9991 -0.000366211 C 2.9991 -0.794312 2.682693 -1.55896 2.120193 -2.12146 C 1.557693 -2.68396 0.795975 -3.000366 -0.000900269 -3.000366 C -0.794846 -3.000366 -1.559494 -2.68396 -2.121994 -2.12146 C -2.684494 -1.55896 -3.0009 -0.794312 -3.0009 -0.000366211 C -3.0009 0.796509 -2.684494 1.558228 -2.121994 2.120728 C -1.559494 2.683228 -0.794846 2.999634 -0.000900269 2.999634 Z M -0.000900269 2.999634 " transform="matrix(1.333333,0,0,1.333333,203.559794,106.223145)"/>
<path style="fill-rule:nonzero;fill:rgb(12.156863%,46.666667%,70.588237%);fill-opacity:1;stroke-width:1;stroke-linecap:butt;stroke-linejoin:round;stroke:rgb(12.156863%,46.666667%,70.588237%);stroke-opacity:1;stroke-miterlimit:4;" d="M -0.00134277 2.998619 C 0.795532 2.998619 1.560181 2.685143 2.122681 2.122643 C 2.685181 1.560143 2.998657 0.795494 2.998657 -0.00138092 C 2.998657 -0.795326 2.685181 -1.559975 2.122681 -2.122475 C 1.560181 -2.684975 0.795532 -3.001381 -0.00134277 -3.001381 C -0.795288 -3.001381 -1.559937 -2.684975 -2.122437 -2.122475 C -2.684937 -1.559975 -3.001343 -0.795326 -3.001343 -0.00138092 C -3.001343 0.795494 -2.684937 1.560143 -2.122437 2.122643 C -1.559937 2.685143 -0.795288 2.998619 -0.00134277 2.998619 Z M -0.00134277 2.998619 " transform="matrix(1.333333,0,0,1.333333,252.212728,44.220591)"/>
<path style="fill-rule:nonzero;fill:rgb(12.156863%,46.666667%,70.588237%);fill-opacity:1;stroke-width:1;stroke-linecap:butt;stroke-linejoin:round;stroke:rgb(12.156863%,46.666667%,70.588237%);stroke-opacity:1;stroke-miterlimit:4;" d="M 0.00117493 3.000267 C 0.79512 3.000267 1.559769 2.683861 2.122269 2.121361 C 2.684769 1.558861 3.001175 0.794212 3.001175 0.000267029 C 3.001175 -0.796608 2.684769 -1.558327 2.122269 -2.120827 C 1.559769 -2.683327 0.79512 -2.999733 0.00117493 -2.999733 C -0.7957 -2.999733 -1.557419 -2.683327 -2.119919 -2.120827 C -2.685349 -1.558327 -2.998825 -0.796608 -2.998825 0.000267029 C -2.998825 0.794212 -2.685349 1.558861 -2.119919 2.121361 C -1.557419 2.683861 -0.7957 3.000267 0.00117493 3.000267 Z M 0.00117493 3.000267 " transform="matrix(1.333333,0,0,1.333333,162.830465,113.257456)"/>
<path style="fill-rule:nonzero;fill:rgb(12.156863%,46.666667%,70.588237%);fill-opacity:1;stroke-width:1;stroke-linecap:butt;stroke-linejoin:round;stroke:rgb(12.156863%,46.666667%,70.588237%);stroke-opacity:1;stroke-miterlimit:4;" d="M -0.00144958 2.999428 C 0.795425 2.999428 1.560074 2.683022 2.122574 2.120522 C 2.685074 1.558022 2.99855 0.796303 2.99855 -0.000572205 C 2.99855 -0.794518 2.685074 -1.559166 2.122574 -2.121666 C 1.560074 -2.684166 0.795425 -3.000572 -0.00144958 -3.000572 C -0.795395 -3.000572 -1.560043 -2.684166 -2.122543 -2.121666 C -2.685043 -1.559166 -3.00145 -0.794518 -3.00145 -0.000572205 C -3.00145 0.796303 -2.685043 1.558022 -2.122543 2.120522 C -1.560043 2.683022 -0.795395 2.999428 -0.00144958 2.999428 Z M -0.00144958 2.999428 " transform="matrix(1.333333,0,0,1.333333,236.126933,69.449982)"/>
<path style="fill-rule:nonzero;fill:rgb(12.156863%,46.666667%,70.588237%);fill-opacity:1;stroke-width:1;stroke-linecap:butt;stroke-linejoin:round;stroke:rgb(12.156863%,46.666667%,70.588237%);stroke-opacity:1;stroke-miterlimit:4;" d="M -0.000125885 3 C 0.796749 3 1.558468 2.683594 2.120968 2.121094 C 2.683468 1.558594 2.999874 0.796875 2.999874 -0.000000000000028422 C 2.999874 -0.796875 2.683468 -1.558594 2.120968 -2.121094 C 1.558468 -2.683594 0.796749 -3 -0.000125885 -3 C -0.797001 -3 -1.55872 -2.683594 -2.12122 -2.121094 C -2.68372 -1.558594 -3.000126 -0.796875 -3.000126 -0.000000000000028422 C -3.000126 0.796875 -2.68372 1.558594 -2.12122 2.121094 C -1.55872 2.683594 -0.797001 3 -0.000125885 3 Z M -0.000125885 3 " transform="matrix(1.333333,0,0,1.333333,50.425949,186)"/>
<path style="fill-rule:nonzero;fill:rgb(12.156863%,46.666667%,70.588237%);fill-opacity:1;stroke-width:1;stroke-linecap:butt;stroke-linejoin:round;stroke:rgb(12.156863%,46.666667%,70.588237%);stroke-opacity:1;stroke-miterlimit:4;" d="M 0.0000915527 3.00042 C 0.796967 3.00042 1.558685 2.684013 2.121185 2.121513 C 2.683685 1.559013 3.000092 0.794365 3.000092 0.000419617 C 3.000092 -0.796455 2.683685 -1.558174 2.121185 -2.120674 C 1.558685 -2.683174 0.796967 -2.99958 0.0000915527 -2.99958 C -0.796783 -2.99958 -1.558502 -2.683174 -2.121002 -2.120674 C -2.683502 -1.558174 -2.999908 -0.796455 -2.999908 0.000419617 C -2.999908 0.794365 -2.683502 1.559013 -2.121002 2.121513 C -1.558502 2.684013 -0.796783 3.00042 0.0000915527 3.00042 Z M 0.0000915527 3.00042 " transform="matrix(1.333333,0,0,1.333333,193.38269,118.315847)"/>
<path style="fill-rule:nonzero;fill:rgb(12.156863%,46.666667%,70.588237%);fill-opacity:1;stroke-width:1;stroke-linecap:butt;stroke-linejoin:round;stroke:rgb(12.156863%,46.666667%,70.588237%);stroke-opacity:1;stroke-miterlimit:4;" d="M 0.0010376 3.000404 C 0.794983 3.000404 1.559631 2.683998 2.122131 2.121498 C 2.684631 1.558998 3.001038 0.79435 3.001038 0.000404358 C 3.001038 -0.796471 2.684631 -1.558189 2.122131 -2.120689 C 1.559631 -2.683189 0.794983 -2.999596 0.0010376 -2.999596 C -0.795837 -2.999596 -1.557556 -2.683189 -2.120056 -2.120689 C -2.682556 -1.558189 -2.998962 -0.796471 -2.998962 0.000404358 C -2.998962 0.79435 -2.682556 1.558998 -2.120056 2.121498 C -1.557556 2.683998 -0.795837 3.000404 0.0010376 3.000404 Z M 0.0010376 3.000404 " transform="matrix(1.333333,0,0,1.333333,152.037679,119.179148)"/>
<path style="fill-rule:nonzero;fill:rgb(12.156863%,46.666667%,70.588237%);fill-opacity:1;stroke-width:1;stroke-linecap:butt;stroke-linejoin:round;stroke:rgb(12.156863%,46.666667%,70.588237%);stroke-opacity:1;stroke-miterlimit:4;" d="M 0.0000305176 3.001328 C 0.796906 3.001328 1.558624 2.684921 2.121124 2.122421 C 2.683624 1.559921 3.000031 0.795273 3.000031 0.00132751 C 3.000031 -0.795547 2.683624 -1.560196 2.121124 -2.122696 C 1.558624 -2.685196 0.796906 -2.998672 0.0000305176 -2.998672 C -0.796844 -2.998672 -1.558563 -2.685196 -2.121063 -2.122696 C -2.683563 -1.560196 -2.999969 -0.795547 -2.999969 0.00132751 C -2.999969 0.795273 -2.683563 1.559921 -2.121063 2.122421 C -1.558563 2.684921 -0.796844 3.001328 0.0000305176 3.001328 Z M 0.0000305176 3.001328 " transform="matrix(1.333333,0,0,1.333333,179.468709,130.232605)"/>
<path style="fill-rule:nonzero;fill:rgb(12.156863%,46.666667%,70.588237%);fill-opacity:1;stroke-width:1;stroke-linecap:butt;stroke-linejoin:round;stroke:rgb(12.156863%,46.666667%,70.588237%);stroke-opacity:1;stroke-miterlimit:4;" d="M 0.000213623 2.999031 C 0.794159 2.999031 1.558807 2.682625 2.121307 2.120125 C 2.683807 1.557625 3.000214 0.795906 3.000214 -0.000968933 C 3.000214 -0.794914 2.683807 -1.559563 2.121307 -2.122063 C 1.558807 -2.684563 0.794159 -3.000969 0.000213623 -3.000969 C -0.796661 -3.000969 -1.55838 -2.684563 -2.12088 -2.122063 C -2.68338 -1.559563 -2.999786 -0.794914 -2.999786 -0.000968933 C -2.999786 0.795906 -2.68338 1.557625 -2.12088 2.120125 C -1.55838 2.682625 -0.796661 2.999031 0.000213623 2.999031 Z M 0.000213623 2.999031 " transform="matrix(1.333333,0,0,1.333333,231.70284,64.790354)"/>
<path style="fill-rule:nonzero;fill:rgb(12.156863%,46.666667%,70.588237%);fill-opacity:1;stroke-width:1;stroke-linecap:butt;stroke-linejoin:round;stroke:rgb(12.156863%,46.666667%,70.588237%);stroke-opacity:1;stroke-miterlimit:4;" d="M -0.000320435 3.001076 C 0.796555 3.001076 1.558273 2.684669 2.120773 2.122169 C 2.683273 1.559669 2.99968 0.795021 2.99968 0.00107574 C 2.99968 -0.795799 2.683273 -1.557518 2.120773 -2.120018 C 1.558273 -2.682518 0.796555 -2.998924 -0.000320435 -2.998924 C -0.794266 -2.998924 -1.558914 -2.682518 -2.121414 -2.120018 C -2.683914 -1.557518 -3.00032 -0.795799 -3.00032 0.00107574 C -3.00032 0.795021 -2.683914 1.559669 -2.121414 2.122169 C -1.558914 2.684669 -0.794266 3.001076 -0.000320435 3.001076 Z M -0.000320435 3.001076 " transform="matrix(1.333333,0,0,1.333333,262.402771,22.955597)"/>
<path style="fill-rule:nonzero;fill:rgb(12.156863%,46.666667%,70.588237%);fill-opacity:1;stroke-width:1;stroke-linecap:butt;stroke-linejoin:round;stroke:rgb(12.156863%,46.666667%,70.588237%);stroke-opacity:1;stroke-miterlimit:4;" d="M 0.000686646 2.999466 C 0.794632 2.999466 1.55928 2.68306 2.12178 2.12056 C 2.68428 1.55806 3.000687 0.796341 3.000687 -0.000534058 C 3.000687 -0.794479 2.68428 -1.559128 2.12178 -2.121628 C 1.55928 -2.684128 0.794632 -3.000534 0.000686646 -3.000534 C -0.796188 -3.000534 -1.557907 -2.684128 -2.120407 -2.121628 C -2.682907 -1.559128 -2.999313 -0.794479 -2.999313 -0.000534058 C -2.999313 0.796341 -2.682907 1.55806 -2.120407 2.12056 C -1.557907 2.68306 -0.796188 2.999466 0.000686646 2.999466 Z M 0.000686646 2.999466 " transform="matrix(1.333333,0,0,1.333333,106.530334,158.664775)"/>
<path style="fill-rule:nonzero;fill:rgb(12.156863%,46.666667%,70.588237%);fill-opacity:1;stroke-width:1;stroke-linecap:butt;stroke-linejoin:round;stroke:rgb(12.156863%,46.666667%,70.588237%);stroke-opacity:1;stroke-miterlimit:4;" d="M -0.00105286 2.998924 C 0.795822 2.998924 1.557541 2.682518 2.120041 2.120018 C 2.682541 1.557518 2.998947 0.795799 2.998947 -0.00107574 C 2.998947 -0.795021 2.682541 -1.559669 2.120041 -2.122169 C 1.557541 -2.684669 0.795822 -3.001076 -0.00105286 -3.001076 C -0.794998 -3.001076 -1.559647 -2.684669 -2.122147 -2.122169 C -2.684647 -1.559669 -3.001053 -0.795021 -3.001053 -0.00107574 C -3.001053 0.795799 -2.684647 1.557518 -2.122147 2.120018 C -1.559647 2.682518 -0.794998 2.998924 -0.00105286 2.998924 Z M -0.00105286 2.998924 " transform="matrix(1.333333,0,0,1.333333,234.177185,76.427216)"/>
<path style="fill-rule:nonzero;fill:rgb(12.156863%,46.666667%,70.588237%);fill-opacity:1;stroke-width:1;stroke-linecap:butt;stroke-linejoin:round;stroke:rgb(12.156863%,46.666667%,70.588237%);stroke-opacity:1;stroke-miterlimit:4;" d="M 0.000320435 2.998962 C 0.794266 2.998962 1.558914 2.682556 2.121414 2.120056 C 2.683914 1.557556 3.00032 0.795837 3.00032 -0.0010376 C 3.00032 -0.794983 2.683914 -1.559631 2.121414 -2.122131 C 1.558914 -2.684631 0.794266 -3.001038 0.000320435 -3.001038 C -0.796555 -3.001038 -1.558273 -2.684631 -2.120773 -2.122131 C -2.683273 -1.559631 -2.99968 -0.794983 -2.99968 -0.0010376 C -2.99968 0.795837 -2.683273 1.557556 -2.120773 2.120056 C -1.558273 2.682556 -0.796555 2.998962 0.000320435 2.998962 Z M 0.000320435 2.998962 " transform="matrix(1.333333,0,0,1.333333,190.86676,114.024821)"/>
<path style="fill-rule:nonzero;fill:rgb(12.156863%,46.666667%,70.588237%);fill-opacity:1;stroke-width:1;stroke-linecap:butt;stroke-linejoin:round;stroke:rgb(12.156863%,46.666667%,70.588237%);stroke-opacity:1;stroke-miterlimit:4;" d="M 0.0010376 3.000252 C 0.794983 3.000252 1.559631 2.683846 2.122131 2.121346 C 2.684631 1.558846 3.001038 0.794197 3.001038 0.00025177 C 3.001038 -0.796623 2.684631 -1.558342 2.122131 -2.120842 C 1.559631 -2.683342 0.794983 -2.999748 0.0010376 -2.999748 C -0.795837 -2.999748 -1.557556 -2.683342 -2.120056 -2.120842 C -2.682556 -1.558342 -2.998962 -0.796623 -2.998962 0.00025177 C -2.998962 0.794197 -2.682556 1.558846 -2.120056 2.121346 C -1.557556 2.683846 -0.795837 3.000252 0.0010376 3.000252 Z M 0.0010376 3.000252 " transform="matrix(1.333333,0,0,1.333333,162.30721,139.292633)"/>
<path style="fill-rule:nonzero;fill:rgb(12.156863%,46.666667%,70.588237%);fill-opacity:1;stroke-width:1;stroke-linecap:butt;stroke-linejoin:round;stroke:rgb(12.156863%,46.666667%,70.588237%);stroke-opacity:1;stroke-miterlimit:4;" d="M 0.000732422 3.000469 C 0.794678 3.000469 1.559326 2.684063 2.121826 2.121563 C 2.684326 1.559063 3.000732 0.794415 3.000732 0.000469208 C 3.000732 -0.796406 2.684326 -1.558125 2.121826 -2.120625 C 1.559326 -2.683125 0.794678 -2.999531 0.000732422 -2.999531 C -0.796143 -2.999531 -1.557861 -2.683125 -2.120361 -2.120625 C -2.682861 -1.558125 -2.999268 -0.796406 -2.999268 0.000469208 C -2.999268 0.794415 -2.682861 1.559063 -2.120361 2.121563 C -1.557861 2.684063 -0.796143 3.000469 0.000732422 3.000469 Z M 0.000732422 3.000469 " transform="matrix(1.333333,0,0,1.333333,277.463867,39.979843)"/>
<path style="fill-rule:nonzero;fill:rgb(12.156863%,46.666667%,70.588237%);fill-opacity:1;stroke-width:1;stroke-linecap:butt;stroke-linejoin:round;stroke:rgb(12.156863%,46.666667%,70.588237%);stroke-opacity:1;stroke-miterlimit:4;" d="M 0.00130463 2.999893 C 0.79525 2.999893 1.559898 2.683487 2.122398 2.120987 C 2.684898 1.558487 3.001305 0.796768 3.001305 -0.000106812 C 3.001305 -0.796982 2.684898 -1.558701 2.122398 -2.121201 C 1.559898 -2.683701 0.79525 -3.000107 0.00130463 -3.000107 C -0.79557 -3.000107 -1.557289 -2.683701 -2.122719 -2.121201 C -2.685219 -1.558701 -2.998695 -0.796982 -2.998695 -0.000106812 C -2.998695 0.796768 -2.685219 1.558487 -2.122719 2.120987 C -1.557289 2.683487 -0.79557 2.999893 0.00130463 2.999893 Z M 0.00130463 2.999893 " transform="matrix(1.333333,0,0,1.333333,106.689667,173.414205)"/>
<path style="fill-rule:nonzero;fill:rgb(12.156863%,46.666667%,70.588237%);fill-opacity:1;stroke-width:1;stroke-linecap:butt;stroke-linejoin:round;stroke:rgb(12.156863%,46.666667%,70.588237%);stroke-opacity:1;stroke-miterlimit:4;" d="M 0.000976562 3.001251 C 0.794922 3.001251 1.55957 2.684845 2.12207 2.122345 C 2.68457 1.559845 3.000977 0.795197 3.000977 0.00125122 C 3.000977 -0.795624 2.68457 -1.557343 2.12207 -2.122772 C 1.55957 -2.685272 0.794922 -2.998749 0.000976562 -2.998749 C -0.795898 -2.998749 -1.557617 -2.685272 -2.120117 -2.122772 C -2.682617 -1.557343 -2.999023 -0.795624 -2.999023 0.00125122 C -2.999023 0.795197 -2.682617 1.559845 -2.120117 2.122345 C -1.557617 2.684845 -0.795898 3.001251 0.000976562 3.001251 Z M 0.000976562 3.001251 " transform="matrix(1.333333,0,0,1.333333,174.104167,112.025675)"/>
<path style="fill-rule:nonzero;fill:rgb(12.156863%,46.666667%,70.588237%);fill-opacity:1;stroke-width:1;stroke-linecap:butt;stroke-linejoin:round;stroke:rgb(12.156863%,46.666667%,70.588237%);stroke-opacity:1;stroke-miterlimit:4;" d="M -0.00144958 2.998817 C 0.795425 2.998817 1.560074 2.685341 2.122574 2.119911 C 2.685074 1.557411 2.99855 0.795692 2.99855 -0.00118256 C 2.99855 -0.795128 2.685074 -1.559776 2.122574 -2.122276 C 1.560074 -2.684776 0.795425 -3.001183 -0.00144958 -3.001183 C -0.795395 -3.001183 -1.560043 -2.684776 -2.122543 -2.122276 C -2.685043 -1.559776 -3.00145 -0.795128 -3.00145 -0.00118256 C -3.00145 0.795692 -2.685043 1.557411 -2.122543 2.119911 C -1.560043 2.685341 -0.795395 2.998817 -0.00144958 2.998817 Z M -0.00144958 2.998817 " transform="matrix(1.333333,0,0,1.333333,156.763652,112.665639)"/>
<path style="fill-rule:nonzero;fill:rgb(12.156863%,46.666667%,70.588237%);fill-opacity:1;stroke-width:1;stroke-linecap:butt;stroke-linejoin:round;stroke:rgb(12.156863%,46.666667%,70.588237%);stroke-opacity:1;stroke-miterlimit:4;" d="M 0.00062561 3.000107 C 0.794571 3.000107 1.559219 2.683701 2.121719 2.121201 C 2.684219 1.558701 3.000626 0.796982 3.000626 0.000106812 C 3.000626 -0.796768 2.684219 -1.558487 2.121719 -2.120987 C 1.559219 -2.683487 0.794571 -2.999893 0.00062561 -2.999893 C -0.796249 -2.999893 -1.557968 -2.683487 -2.120468 -2.120987 C -2.682968 -1.558487 -2.999374 -0.796768 -2.999374 0.000106812 C -2.999374 0.796982 -2.682968 1.558701 -2.120468 2.121201 C -1.557968 2.683701 -0.796249 3.000107 0.00062561 3.000107 Z M 0.00062561 3.000107 " transform="matrix(1.333333,0,0,1.333333,218.956197,79.027201)"/>
<path style="fill-rule:nonzero;fill:rgb(12.156863%,46.666667%,70.588237%);fill-opacity:1;stroke-width:1;stroke-linecap:butt;stroke-linejoin:round;stroke:rgb(12.156863%,46.666667%,70.588237%);stroke-opacity:1;stroke-miterlimit:4;" d="M 0.000534058 3.001038 C 0.794479 3.001038 1.559128 2.684631 2.121628 2.122131 C 2.684128 1.559631 3.000534 0.794983 3.000534 0.0010376 C 3.000534 -0.795837 2.684128 -1.557556 2.121628 -2.120056 C 1.559128 -2.682556 0.794479 -2.998962 0.000534058 -2.998962 C -0.796341 -2.998962 -1.55806 -2.682556 -2.12056 -2.120056 C -2.68306 -1.557556 -2.999466 -0.795837 -2.999466 0.0010376 C -2.999466 0.794983 -2.68306 1.559631 -2.12056 2.122131 C -1.55806 2.684631 -0.796341 3.001038 0.000534058 3.001038 Z M 0.000534058 3.001038 " transform="matrix(1.333333,0,0,1.333333,179.577413,91.490804)"/>
<path style="fill-rule:nonzero;fill:rgb(12.156863%,46.666667%,70.588237%);fill-opacity:1;stroke-width:1;stroke-linecap:butt;stroke-linejoin:round;stroke:rgb(12.156863%,46.666667%,70.588237%);stroke-opacity:1;stroke-miterlimit:4;" d="M -0.000976563 2.999718 C 0.795898 2.999718 1.557617 2.683311 2.120117 2.120811 C 2.682617 1.558311 2.999023 0.796593 2.999023 -0.000282288 C 2.999023 -0.794228 2.682617 -1.558876 2.120117 -2.121376 C 1.557617 -2.683876 0.795898 -3.000282 -0.000976563 -3.000282 C -0.794922 -3.000282 -1.55957 -2.683876 -2.12207 -2.121376 C -2.68457 -1.558876 -3.000977 -0.794228 -3.000977 -0.000282288 C -3.000977 0.796593 -2.68457 1.558311 -2.12207 2.120811 C -1.55957 2.683311 -0.794922 2.999718 -0.000976563 2.999718 Z M -0.000976563 2.999718 " transform="matrix(1.333333,0,0,1.333333,132.184896,154.711314)"/>
<path style="fill-rule:nonzero;fill:rgb(12.156863%,46.666667%,70.588237%);fill-opacity:1;stroke-width:1;stroke-linecap:butt;stroke-linejoin:round;stroke:rgb(12.156863%,46.666667%,70.588237%);stroke-opacity:1;stroke-miterlimit:4;" d="M 0.00125122 3.000946 C 0.795197 3.000946 1.559845 2.68454 2.122345 2.12204 C 2.684845 1.55954 3.001251 0.794891 3.001251 0.000946045 C 3.001251 -0.795929 2.684845 -1.557648 2.122345 -2.120148 C 1.559845 -2.682648 0.795197 -2.999054 0.00125122 -2.999054 C -0.795624 -2.999054 -1.557343 -2.682648 -2.122772 -2.120148 C -2.685272 -1.557648 -2.998749 -0.795929 -2.998749 0.000946045 C -2.998749 0.794891 -2.685272 1.55954 -2.122772 2.12204 C -1.557343 2.68454 -0.795624 3.000946 0.00125122 3.000946 Z M 0.00125122 3.000946 " transform="matrix(1.333333,0,0,1.333333,175.931925,103.252645)"/>
<path style="fill-rule:nonzero;fill:rgb(12.156863%,46.666667%,70.588237%);fill-opacity:1;stroke-width:1;stroke-linecap:butt;stroke-linejoin:round;stroke:rgb(12.156863%,46.666667%,70.588237%);stroke-opacity:1;stroke-miterlimit:4;" d="M -0.000579834 2.998695 C 0.796295 2.998695 1.558014 2.685219 2.120514 2.122719 C 2.683014 1.557289 2.99942 0.79557 2.99942 -0.00130463 C 2.99942 -0.79525 2.683014 -1.559898 2.120514 -2.122398 C 1.558014 -2.684898 0.796295 -3.001305 -0.000579834 -3.001305 C -0.794525 -3.001305 -1.559174 -2.684898 -2.121674 -2.122398 C -2.684174 -1.559898 -3.00058 -0.79525 -3.00058 -0.00130463 C -3.00058 0.79557 -2.684174 1.557289 -2.121674 2.122719 C -1.559174 2.685219 -0.794525 2.998695 -0.000579834 2.998695 Z M -0.000579834 2.998695 " transform="matrix(1.333333,0,0,1.333333,200.301554,97.154083)"/>
<path style="fill-rule:nonzero;fill:rgb(12.156863%,46.666667%,70.588237%);fill-opacity:1;stroke-width:1;stroke-linecap:butt;stroke-linejoin:round;stroke:rgb(12.156863%,46.666667%,70.588237%);stroke-opacity:1;stroke-miterlimit:4;" d="M -0.00134277 3.000908 C 0.795532 3.000908 1.560181 2.684502 2.122681 2.122002 C 2.685181 1.559502 2.998657 0.794853 2.998657 0.000907898 C 2.998657 -0.795967 2.685181 -1.557686 2.122681 -2.120186 C 1.560181 -2.682686 0.795532 -2.999092 -0.00134277 -2.999092 C -0.795288 -2.999092 -1.559937 -2.682686 -2.122437 -2.120186 C -2.684937 -1.557686 -3.001343 -0.795967 -3.001343 0.000907898 C -3.001343 0.794853 -2.684937 1.559502 -2.122437 2.122002 C -1.559937 2.684502 -0.795288 3.000908 -0.00134277 3.000908 Z M -0.00134277 3.000908 " transform="matrix(1.333333,0,0,1.333333,181.888509,94.580821)"/>
<path style="fill-rule:nonzero;fill:rgb(12.156863%,46.666667%,70.588237%);fill-opacity:1;stroke-width:1;stroke-linecap:butt;stroke-linejoin:round;stroke:rgb(12.156863%,46.666667%,70.588237%);stroke-opacity:1;stroke-miterlimit:4;" d="M 0.000915527 3.001036 C 0.794861 3.001036 1.559509 2.684629 2.122009 2.122129 C 2.684509 1.559629 3.000916 0.794981 3.000916 0.00103569 C 3.000916 -0.795839 2.684509 -1.557558 2.122009 -2.120058 C 1.559509 -2.682558 0.794861 -2.998964 0.000915527 -2.998964 C -0.795959 -2.998964 -1.557678 -2.682558 -2.120178 -2.120058 C -2.682678 -1.557558 -2.999084 -0.795839 -2.999084 0.00103569 C -2.999084 0.794981 -2.682678 1.559629 -2.120178 2.122129 C -1.557678 2.684629 -0.795959 3.001036 0.000915527 3.001036 Z M 0.000915527 3.001036 " transform="matrix(1.333333,0,0,1.333333,261.319092,28.76815)"/>
<path style="fill-rule:nonzero;fill:rgb(12.156863%,46.666667%,70.588237%);fill-opacity:1;stroke-width:1;stroke-linecap:butt;stroke-linejoin:round;stroke:rgb(12.156863%,46.666667%,70.588237%);stroke-opacity:1;stroke-miterlimit:4;" d="M 0.00131226 3.000992 C 0.795258 3.000992 1.559906 2.684586 2.122406 2.122086 C 2.684906 1.559586 3.001312 0.794937 3.001312 0.000991821 C 3.001312 -0.795883 2.684906 -1.557602 2.122406 -2.120102 C 1.559906 -2.682602 0.795258 -2.999008 0.00131226 -2.999008 C -0.795563 -2.999008 -1.557281 -2.682602 -2.122711 -2.120102 C -2.685211 -1.557602 -2.998688 -0.795883 -2.998688 0.000991821 C -2.998688 0.794937 -2.685211 1.559586 -2.122711 2.122086 C -1.557281 2.684586 -0.795563 3.000992 0.00131226 3.000992 Z M 0.00131226 3.000992 " transform="matrix(1.333333,0,0,1.333333,181.584188,128.615865)"/>
<path style="fill-rule:nonzero;fill:rgb(12.156863%,46.666667%,70.588237%);fill-opacity:1;stroke-width:1;stroke-linecap:butt;stroke-linejoin:round;stroke:rgb(12.156863%,46.666667%,70.588237%);stroke-opacity:1;stroke-miterlimit:4;" d="M 0.00109863 2.999748 C 0.795044 2.999748 1.559692 2.683342 2.122192 2.120842 C 2.684692 1.558342 3.001099 0.796623 3.001099 -0.00025177 C 3.001099 -0.794197 2.684692 -1.558846 2.122192 -2.121346 C 1.559692 -2.683846 0.795044 -3.000252 0.00109863 -3.000252 C -0.795776 -3.000252 -1.557495 -2.683846 -2.119995 -2.121346 C -2.682495 -1.558846 -2.998901 -0.794197 -2.998901 -0.00025177 C -2.998901 0.796623 -2.682495 1.558342 -2.119995 2.120842 C -1.557495 2.683342 -0.795776 2.999748 0.00109863 2.999748 Z M 0.00109863 2.999748 " transform="matrix(1.333333,0,0,1.333333,219.842285,89.414398)"/>
<path style="fill-rule:nonzero;fill:rgb(12.156863%,46.666667%,70.588237%);fill-opacity:1;stroke-width:1;stroke-linecap:butt;stroke-linejoin:round;stroke:rgb(12.156863%,46.666667%,70.588237%);stroke-opacity:1;stroke-miterlimit:4;" d="M 0.00119019 2.999962 C 0.795135 2.999962 1.559784 2.683556 2.122284 2.121056 C 2.684784 1.558556 3.00119 0.796837 3.00119 -0.000038147 C 3.00119 -0.796913 2.684784 -1.558632 2.122284 -2.121132 C 1.559784 -2.683632 0.795135 -3.000038 0.00119019 -3.000038 C -0.795685 -3.000038 -1.557404 -2.683632 -2.119904 -2.121132 C -2.685333 -1.558632 -2.99881 -0.796913 -2.99881 -0.000038147 C -2.99881 0.796837 -2.685333 1.558556 -2.119904 2.121056 C -1.557404 2.683556 -0.795685 2.999962 0.00119019 2.999962 Z M 0.00119019 2.999962 " transform="matrix(1.333333,0,0,1.333333,131.326538,142.218801)"/>
<path style="fill-rule:nonzero;fill:rgb(12.156863%,46.666667%,70.588237%);fill-opacity:1;stroke-width:1;stroke-linecap:butt;stroke-linejoin:round;stroke:rgb(12.156863%,46.666667%,70.588237%);stroke-opacity:1;stroke-miterlimit:4;" d="M -0.00124359 2.999947 C 0.795631 2.999947 1.55735 2.68354 2.12278 2.12104 C 2.68528 1.55854 2.998756 0.796822 2.998756 -0.0000534058 C 2.998756 -0.796928 2.68528 -1.558647 2.12278 -2.121147 C 1.55735 -2.683647 0.795631 -3.000053 -0.00124359 -3.000053 C -0.795189 -3.000053 -1.559837 -2.683647 -2.122337 -2.121147 C -2.684837 -1.558647 -3.001244 -0.796928 -3.001244 -0.0000534058 C -3.001244 0.796822 -2.684837 1.55854 -2.122337 2.12104 C -1.559837 2.68354 -0.795189 2.999947 -0.00124359 2.999947 Z M -0.00124359 2.999947 " transform="matrix(1.333333,0,0,1.333333,151.446971,115.515696)"/>
<path style="fill-rule:nonzero;fill:rgb(12.156863%,46.666667%,70.588237%);fill-opacity:1;stroke-width:1;stroke-linecap:butt;stroke-linejoin:round;stroke:rgb(12.156863%,46.666667%,70.588237%);stroke-opacity:1;stroke-miterlimit:4;" d="M -0.00088501 2.998978 C 0.79599 2.998978 1.557709 2.682571 2.120209 2.120071 C 2.682709 1.557571 2.999115 0.795853 2.999115 -0.00102234 C 2.999115 -0.794968 2.682709 -1.559616 2.120209 -2.122116 C 1.557709 -2.684616 0.79599 -3.001022 -0.00088501 -3.001022 C -0.79483 -3.001022 -1.559479 -2.684616 -2.121979 -2.122116 C -2.684479 -1.559616 -3.000885 -0.794968 -3.000885 -0.00102234 C -3.000885 0.795853 -2.684479 1.557571 -2.121979 2.120071 C -1.559479 2.682571 -0.79483 2.998978 -0.00088501 2.998978 Z M -0.00088501 2.998978 " transform="matrix(1.333333,0,0,1.333333,249.704305,71.770894)"/>
<path style="fill-rule:nonzero;fill:rgb(12.156863%,46.666667%,70.588237%);fill-opacity:1;stroke-width:1;stroke-linecap:butt;stroke-linejoin:round;stroke:rgb(12.156863%,46.666667%,70.588237%);stroke-opacity:1;stroke-miterlimit:4;" d="M 0.000961304 2.999451 C 0.794907 2.999451 1.559555 2.683044 2.122055 2.120544 C 2.684555 1.558044 3.000961 0.796326 3.000961 -0.000549316 C 3.000961 -0.794495 2.684555 -1.559143 2.122055 -2.121643 C 1.559555 -2.684143 0.794907 -3.000549 0.000961304 -3.000549 C -0.795914 -3.000549 -1.557632 -2.684143 -2.120132 -2.121643 C -2.682632 -1.559143 -2.999039 -0.794495 -2.999039 -0.000549316 C -2.999039 0.796326 -2.682632 1.558044 -2.120132 2.120544 C -1.557632 2.683044 -0.795914 2.999451 0.000961304 2.999451 Z M 0.000961304 2.999451 " transform="matrix(1.333333,0,0,1.333333,184.881531,100.184326)"/>
<path style="fill-rule:nonzero;fill:rgb(12.156863%,46.666667%,70.588237%);fill-opacity:1;stroke-width:1;stroke-linecap:butt;stroke-linejoin:round;stroke:rgb(12.156863%,46.666667%,70.588237%);stroke-opacity:1;stroke-miterlimit:4;" d="M 0.000762939 3.000973 C 0.794708 3.000973 1.559357 2.684566 2.121857 2.122066 C 2.684357 1.559566 3.000763 0.794918 3.000763 0.000972748 C 3.000763 -0.795902 2.684357 -1.557621 2.121857 -2.120121 C 1.559357 -2.682621 0.794708 -2.999027 0.000762939 -2.999027 C -0.796112 -2.999027 -1.557831 -2.682621 -2.120331 -2.120121 C -2.682831 -1.557621 -2.999237 -0.795902 -2.999237 0.000972748 C -2.999237 0.794918 -2.682831 1.559566 -2.120331 2.122066 C -1.557831 2.684566 -0.796112 3.000973 0.000762939 3.000973 Z M 0.000762939 3.000973 " transform="matrix(1.333333,0,0,1.333333,238.36617,52.596359)"/>
<path style="fill-rule:nonzero;fill:rgb(12.156863%,46.666667%,70.588237%);fill-opacity:1;stroke-width:1;stroke-linecap:butt;stroke-linejoin:round;stroke:rgb(12.156863%,46.666667%,70.588237%);stroke-opacity:1;stroke-miterlimit:4;" d="M 0.00143433 3.000877 C 0.79538 3.000877 1.560028 2.684471 2.122528 2.121971 C 2.685028 1.559471 3.001434 0.794823 3.001434 0.00087738 C 3.001434 -0.795998 2.685028 -1.557716 2.122528 -2.120216 C 1.560028 -2.682716 0.79538 -2.999123 0.00143433 -2.999123 C -0.795441 -2.999123 -1.560089 -2.682716 -2.122589 -2.120216 C -2.685089 -1.557716 -2.998566 -0.795998 -2.998566 0.00087738 C -2.998566 0.794823 -2.685089 1.559471 -2.122589 2.121971 C -1.560089 2.684471 -0.795441 3.000877 0.00143433 3.000877 Z M 0.00143433 3.000877 " transform="matrix(1.333333,0,0,1.333333,174.205119,117.131643)"/>
<path style="fill-rule:nonzero;fill:rgb(12.156863%,46.666667%,70.588237%);fill-opacity:1;stroke-width:1;stroke-linecap:butt;stroke-linejoin:round;stroke:rgb(12.156863%,46.666667%,70.588237%);stroke-opacity:1;stroke-miterlimit:4;" d="M 0.00128174 2.999588 C 0.795227 2.999588 1.559875 2.683182 2.122375 2.120682 C 2.684875 1.558182 3.001282 0.796463 3.001282 -0.000411987 C 3.001282 -0.794357 2.684875 -1.559006 2.122375 -2.121506 C 1.559875 -2.684006 0.795227 -3.000412 0.00128174 -3.000412 C -0.795593 -3.000412 -1.557312 -2.684006 -2.122742 -2.121506 C -2.685242 -1.559006 -2.998718 -0.794357 -2.998718 -0.000411987 C -2.998718 0.796463 -2.685242 1.558182 -2.122742 2.120682 C -1.557312 2.683182 -0.795593 2.999588 0.00128174 2.999588 Z M 0.00128174 2.999588 " transform="matrix(1.333333,0,0,1.333333,159.154541,128.781799)"/>
<path style="fill-rule:nonzero;fill:rgb(12.156863%,46.666667%,70.588237%);fill-opacity:1;stroke-width:1;stroke-linecap:butt;stroke-linejoin:round;stroke:rgb(12.156863%,46.666667%,70.588237%);stroke-opacity:1;stroke-miterlimit:4;" d="M 0.000427246 2.999104 C 0.794373 2.999104 1.559021 2.682697 2.121521 2.120197 C 2.684021 1.557697 3.000427 0.795979 3.000427 -0.000896454 C 3.000427 -0.794842 2.684021 -1.55949 2.121521 -2.12199 C 1.559021 -2.68449 0.794373 -3.000896 0.000427246 -3.000896 C -0.796448 -3.000896 -1.558167 -2.68449 -2.120667 -2.12199 C -2.683167 -1.55949 -2.999573 -0.794842 -2.999573 -0.000896454 C -2.999573 0.795979 -2.683167 1.557697 -2.120667 2.120197 C -1.558167 2.682697 -0.796448 2.999104 0.000427246 2.999104 Z M 0.000427246 2.999104 " transform="matrix(1.333333,0,0,1.333333,250.585368,42.907445)"/>
<path style="fill-rule:nonzero;fill:rgb(12.156863%,46.666667%,70.588237%);fill-opacity:1;stroke-width:1;stroke-linecap:butt;stroke-linejoin:round;stroke:rgb(12.156863%,46.666667%,70.588237%);stroke-opacity:1;stroke-miterlimit:4;" d="M -0.000762939 2.999191 C 0.796112 2.999191 1.557831 2.682785 2.120331 2.120285 C 2.682831 1.557785 2.999237 0.796066 2.999237 -0.000808716 C 2.999237 -0.794754 2.682831 -1.559402 2.120331 -2.121902 C 1.557831 -2.684402 0.796112 -3.000809 -0.000762939 -3.000809 C -0.794708 -3.000809 -1.559357 -2.684402 -2.121857 -2.121902 C -2.684357 -1.559402 -3.000763 -0.794754 -3.000763 -0.000808716 C -3.000763 0.796066 -2.684357 1.557785 -2.121857 2.120285 C -1.559357 2.682785 -0.794708 2.999191 -0.000762939 2.999191 Z M -0.000762939 2.999191 " transform="matrix(1.333333,0,0,1.333333,205.809611,103.036235)"/>
<path style="fill-rule:nonzero;fill:rgb(12.156863%,46.666667%,70.588237%);fill-opacity:1;stroke-width:1;stroke-linecap:butt;stroke-linejoin:round;stroke:rgb(12.156863%,46.666667%,70.588237%);stroke-opacity:1;stroke-miterlimit:4;" d="M -0.000701904 3.000885 C 0.796173 3.000885 1.557892 2.684479 2.120392 2.121979 C 2.682892 1.559479 2.999298 0.79483 2.999298 0.00088501 C 2.999298 -0.79599 2.682892 -1.557709 2.120392 -2.120209 C 1.557892 -2.682709 0.796173 -2.999115 -0.000701904 -2.999115 C -0.794647 -2.999115 -1.559296 -2.682709 -2.121796 -2.120209 C -2.684296 -1.557709 -3.000702 -0.79599 -3.000702 0.00088501 C -3.000702 0.79483 -2.684296 1.559479 -2.121796 2.121979 C -1.559296 2.684479 -0.794647 3.000885 -0.000701904 3.000885 Z M -0.000701904 3.000885 " transform="matrix(1.333333,0,0,1.333333,140.770467,139.573039)"/>
<path style="fill-rule:nonzero;fill:rgb(12.156863%,46.666667%,70.588237%);fill-opacity:1;stroke-width:1;stroke-linecap:butt;stroke-linejoin:round;stroke:rgb(12.156863%,46.666667%,70.588237%);stroke-opacity:1;stroke-miterlimit:4;" d="M -0.000900269 2.999985 C 0.795975 2.999985 1.557693 2.683578 2.120193 2.121078 C 2.682693 1.558578 2.9991 0.79686 2.9991 -0.0000152588 C 2.9991 -0.79689 2.682693 -1.558609 2.120193 -2.121109 C 1.557693 -2.683609 0.795975 -3.000015 -0.000900269 -3.000015 C -0.794846 -3.000015 -1.559494 -2.683609 -2.121994 -2.121109 C -2.684494 -1.558609 -3.0009 -0.79689 -3.0009 -0.0000152588 C -3.0009 0.79686 -2.684494 1.558578 -2.121994 2.121078 C -1.559494 2.683578 -0.794846 2.999985 -0.000900269 2.999985 Z M -0.000900269 2.999985 " transform="matrix(1.333333,0,0,1.333333,186.864482,100.492208)"/>
<path style="fill-rule:nonzero;fill:rgb(12.156863%,46.666667%,70.588237%);fill-opacity:1;stroke-width:1;stroke-linecap:butt;stroke-linejoin:round;stroke:rgb(12.156863%,46.666667%,70.588237%);stroke-opacity:1;stroke-miterlimit:4;" d="M -0.0012207 2.999672 C 0.795654 2.999672 1.557373 2.683266 2.119873 2.120766 C 2.685303 1.558266 2.998779 0.796547 2.998779 -0.000328064 C 2.998779 -0.794273 2.685303 -1.558922 2.119873 -2.121422 C 1.557373 -2.683922 0.795654 -3.000328 -0.0012207 -3.000328 C -0.795166 -3.000328 -1.559814 -2.683922 -2.122314 -2.121422 C -2.684814 -1.558922 -3.001221 -0.794273 -3.001221 -0.000328064 C -3.001221 0.796547 -2.684814 1.558266 -2.122314 2.120766 C -1.559814 2.683266 -0.795166 2.999672 -0.0012207 2.999672 Z M -0.0012207 2.999672 " transform="matrix(1.333333,0,0,1.333333,191.806315,93.840281)"/>
<path style="fill-rule:nonzero;fill:rgb(12.156863%,46.666667%,70.588237%);fill-opacity:1;stroke-width:1;stroke-linecap:butt;stroke-linejoin:round;stroke:rgb(12.156863%,46.666667%,70.588237%);stroke-opacity:1;stroke-miterlimit:4;" d="M 0.00121307 3.001213 C 0.795158 3.001213 1.559807 2.684807 2.122307 2.122307 C 2.684807 1.559807 3.001213 0.795158 3.001213 0.00121307 C 3.001213 -0.795662 2.684807 -1.557381 2.122307 -2.119881 C 1.559807 -2.68531 0.795158 -2.998787 0.00121307 -2.998787 C -0.795662 -2.998787 -1.557381 -2.68531 -2.119881 -2.119881 C -2.68531 -1.557381 -2.998787 -0.795662 -2.998787 0.00121307 C -2.998787 0.795158 -2.68531 1.559807 -2.119881 2.122307 C -1.557381 2.684807 -0.795662 3.001213 0.00121307 3.001213 Z M 0.00121307 3.001213 " transform="matrix(1.333333,0,0,1.333333,146.158539,140.002289)"/>
<path style="fill-rule:nonzero;fill:rgb(12.156863%,46.666667%,70.588237%);fill-opacity:1;stroke-width:1;stroke-linecap:butt;stroke-linejoin:round;stroke:rgb(12.156863%,46.666667%,70.588237%);stroke-opacity:1;stroke-miterlimit:4;" d="M 0.000640869 3.000328 C 0.794586 3.000328 1.559235 2.683922 2.121735 2.121422 C 2.684235 1.558922 3.000641 0.794273 3.000641 0.000328064 C 3.000641 -0.796547 2.684235 -1.558266 2.121735 -2.120766 C 1.559235 -2.683266 0.794586 -2.999672 0.000640869 -2.999672 C -0.796234 -2.999672 -1.557953 -2.683266 -2.120453 -2.120766 C -2.682953 -1.558266 -2.999359 -0.796547 -2.999359 0.000328064 C -2.999359 0.794273 -2.682953 1.558922 -2.120453 2.121422 C -1.557953 2.683922 -0.796234 3.000328 0.000640869 3.000328 Z M 0.000640869 3.000328 " transform="matrix(1.333333,0,0,1.333333,209.971802,76.683156)"/>
<path style="fill-rule:nonzero;fill:rgb(12.156863%,46.666667%,70.588237%);fill-opacity:1;stroke-width:1;stroke-linecap:butt;stroke-linejoin:round;stroke:rgb(12.156863%,46.666667%,70.588237%);stroke-opacity:1;stroke-miterlimit:4;" d="M 0.000671387 2.999302 C 0.794617 2.999302 1.559265 2.682896 2.121765 2.120396 C 2.684265 1.557896 3.000671 0.796177 3.000671 -0.00069809 C 3.000671 -0.794643 2.684265 -1.559292 2.121765 -2.121792 C 1.559265 -2.684292 0.794617 -3.000698 0.000671387 -3.000698 C -0.796204 -3.000698 -1.557922 -2.684292 -2.120422 -2.121792 C -2.682922 -1.559292 -2.999329 -0.794643 -2.999329 -0.00069809 C -2.999329 0.796177 -2.682922 1.557896 -2.120422 2.120396 C -1.557922 2.682896 -0.796204 2.999302 0.000671387 2.999302 Z M 0.000671387 2.999302 " transform="matrix(1.333333,0,0,1.333333,228.440511,68.754837)"/>
<path style="fill-rule:nonzero;fill:rgb(12.156863%,46.666667%,70.588237%);fill-opacity:1;stroke-width:1;stroke-linecap:butt;stroke-linejoin:round;stroke:rgb(12.156863%,46.666667%,70.588237%);stroke-opacity:1;stroke-miterlimit:4;" d="M 0.00100708 3.000916 C 0.794952 3.000916 1.559601 2.684509 2.122101 2.122009 C 2.684601 1.559509 3.001007 0.794861 3.001007 0.000915527 C 3.001007 -0.795959 2.684601 -1.557678 2.122101 -2.120178 C 1.559601 -2.682678 0.794952 -2.999084 0.00100708 -2.999084 C -0.795868 -2.999084 -1.557587 -2.682678 -2.120087 -2.120178 C -2.682587 -1.557678 -2.998993 -0.795959 -2.998993 0.000915527 C -2.998993 0.794861 -2.682587 1.559509 -2.120087 2.122009 C -1.557587 2.684509 -0.795868 3.000916 0.00100708 3.000916 Z M 0.00100708 3.000916 " transform="matrix(1.333333,0,0,1.333333,144.28772,138.151123)"/>
<path style="fill-rule:nonzero;fill:rgb(12.156863%,46.666667%,70.588237%);fill-opacity:1;stroke-width:1;stroke-linecap:butt;stroke-linejoin:round;stroke:rgb(12.156863%,46.666667%,70.588237%);stroke-opacity:1;stroke-miterlimit:4;" d="M -0.00110626 2.999344 C 0.795769 2.999344 1.557487 2.682938 2.119987 2.120438 C 2.682487 1.557938 2.998894 0.796219 2.998894 -0.000656128 C 2.998894 -0.794601 2.682487 -1.55925 2.119987 -2.12175 C 1.557487 -2.68425 0.795769 -3.000656 -0.00110626 -3.000656 C -0.795052 -3.000656 -1.5597 -2.68425 -2.1222 -2.12175 C -2.6847 -1.55925 -3.001106 -0.794601 -3.001106 -0.000656128 C -3.001106 0.796219 -2.6847 1.557938 -2.1222 2.120438 C -1.5597 2.682938 -0.795052 2.999344 -0.00110626 2.999344 Z M -0.00110626 2.999344 " transform="matrix(1.333333,0,0,1.333333,159.208506,127.832906)"/>
<path style="fill-rule:nonzero;fill:rgb(12.156863%,46.666667%,70.588237%);fill-opacity:1;stroke-width:1;stroke-linecap:butt;stroke-linejoin:round;stroke:rgb(12.156863%,46.666667%,70.588237%);stroke-opacity:1;stroke-miterlimit:4;" d="M 0.0012207 3.000999 C 0.795166 3.000999 1.559814 2.684593 2.122314 2.122093 C 2.684814 1.559593 3.001221 0.794945 3.001221 0.000999451 C 3.001221 -0.795876 2.684814 -1.557594 2.122314 -2.120094 C 1.559814 -2.682594 0.795166 -2.999001 0.0012207 -2.999001 C -0.795654 -2.999001 -1.557373 -2.682594 -2.119873 -2.120094 C -2.685303 -1.557594 -2.998779 -0.795876 -2.998779 0.000999451 C -2.998779 0.794945 -2.685303 1.559593 -2.119873 2.122093 C -1.557373 2.684593 -0.795654 3.000999 0.0012207 3.000999 Z M 0.0012207 3.000999 " transform="matrix(1.333333,0,0,1.333333,193.775716,97.545542)"/>
<path style="fill-rule:nonzero;fill:rgb(12.156863%,46.666667%,70.588237%);fill-opacity:1;stroke-width:1;stroke-linecap:butt;stroke-linejoin:round;stroke:rgb(12.156863%,46.666667%,70.588237%);stroke-opacity:1;stroke-miterlimit:4;" d="M 0.00126648 2.998581 C 0.795212 2.998581 1.55986 2.685104 2.12236 2.122604 C 2.68486 1.560104 3.001266 0.795456 3.001266 -0.00141907 C 3.001266 -0.795364 2.68486 -1.560013 2.12236 -2.122513 C 1.55986 -2.685013 0.795212 -3.001419 0.00126648 -3.001419 C -0.795609 -3.001419 -1.557327 -2.685013 -2.122757 -2.122513 C -2.685257 -1.560013 -2.998734 -0.795364 -2.998734 -0.00141907 C -2.998734 0.795456 -2.685257 1.560104 -2.122757 2.122604 C -1.557327 2.685104 -0.795609 2.998581 0.00126648 2.998581 Z M 0.00126648 2.998581 " transform="matrix(1.333333,0,0,1.333333,171.41628,121.728455)"/>
<path style="fill-rule:nonzero;fill:rgb(12.156863%,46.666667%,70.588237%);fill-opacity:1;stroke-width:1;stroke-linecap:butt;stroke-linejoin:round;stroke:rgb(12.156863%,46.666667%,70.588237%);stroke-opacity:1;stroke-miterlimit:4;" d="M -0.00126648 3.000145 C 0.795609 3.000145 1.557327 2.683739 2.122757 2.121239 C 2.685257 1.558739 2.998734 0.79702 2.998734 0.000144958 C 2.998734 -0.79673 2.685257 -1.558449 2.122757 -2.120949 C 1.557327 -2.683449 0.795609 -2.999855 -0.00126648 -2.999855 C -0.795212 -2.999855 -1.55986 -2.683449 -2.12236 -2.120949 C -2.68486 -1.558449 -3.001266 -0.79673 -3.001266 0.000144958 C -3.001266 0.79702 -2.68486 1.558739 -2.12236 2.121239 C -1.55986 2.683739 -0.795212 3.000145 -0.00126648 3.000145 Z M -0.00126648 3.000145 " transform="matrix(1.333333,0,0,1.333333,235.775126,71.46465)"/>
<path style="fill-rule:nonzero;fill:rgb(12.156863%,46.666667%,70.588237%);fill-opacity:1;stroke-width:1;stroke-linecap:butt;stroke-linejoin:round;stroke:rgb(12.156863%,46.666667%,70.588237%);stroke-opacity:1;stroke-miterlimit:4;" d="M -0.000152588 3.000771 C 0.796722 3.000771 1.558441 2.684364 2.120941 2.121864 C 2.683441 1.559364 2.999847 0.794716 2.999847 0.000770569 C 2.999847 -0.796104 2.683441 -1.557823 2.120941 -2.120323 C 1.558441 -2.682823 0.796722 -2.999229 -0.000152588 -2.999229 C -0.797028 -2.999229 -1.558746 -2.682823 -2.121246 -2.120323 C -2.683746 -1.557823 -3.000153 -0.796104 -3.000153 0.000770569 C -3.000153 0.794716 -2.683746 1.559364 -2.121246 2.121864 C -1.558746 2.684364 -0.797028 3.000771 -0.000152588 3.000771 Z M -0.000152588 3.000771 " transform="matrix(1.333333,0,0,1.333333,192.328328,112.940379)"/>
<path style="fill-rule:nonzero;fill:rgb(12.156863%,46.666667%,70.588237%);fill-opacity:1;stroke-width:1;stroke-linecap:butt;stroke-linejoin:round;stroke:rgb(12.156863%,46.666667%,70.588237%);stroke-opacity:1;stroke-miterlimit:4;" d="M -0.000427246 2.99987 C 0.796448 2.99987 1.558167 2.683464 2.120667 2.120964 C 2.683167 1.558464 2.999573 0.796745 2.999573 -0.0001297 C 2.999573 -0.797005 2.683167 -1.558723 2.120667 -2.121223 C 1.558167 -2.683723 0.796448 -3.00013 -0.000427246 -3.00013 C -0.794373 -3.00013 -1.559021 -2.683723 -2.121521 -2.121223 C -2.684021 -1.558723 -3.000427 -0.797005 -3.000427 -0.0001297 C -3.000427 0.796745 -2.684021 1.558464 -2.121521 2.120964 C -1.559021 2.683464 -0.794373 2.99987 -0.000427246 2.99987 Z M -0.000427246 2.99987 " transform="matrix(1.333333,0,0,1.333333,270.758382,47.293142)"/>
<path style="fill-rule:nonzero;fill:rgb(12.156863%,46.666667%,70.588237%);fill-opacity:1;stroke-width:1;stroke-linecap:butt;stroke-linejoin:round;stroke:rgb(12.156863%,46.666667%,70.588237%);stroke-opacity:1;stroke-miterlimit:4;" d="M 0.000930786 2.998631 C 0.794876 2.998631 1.559525 2.685154 2.122025 2.122654 C 2.684525 1.560154 3.000931 0.795506 3.000931 -0.00136948 C 3.000931 -0.795315 2.684525 -1.559963 2.122025 -2.122463 C 1.559525 -2.684963 0.794876 -3.001369 0.000930786 -3.001369 C -0.795944 -3.001369 -1.557663 -2.684963 -2.120163 -2.122463 C -2.682663 -1.559963 -2.999069 -0.795315 -2.999069 -0.00136948 C -2.999069 0.795506 -2.682663 1.560154 -2.120163 2.122654 C -1.557663 2.685154 -0.795944 2.998631 0.000930786 2.998631 Z M 0.000930786 2.998631 " transform="matrix(1.333333,0,0,1.333333,253.881571,59.572138)"/>
<path style="fill-rule:nonzero;fill:rgb(12.156863%,46.666667%,70.588237%);fill-opacity:1;stroke-width:1;stroke-linecap:butt;stroke-linejoin:round;stroke:rgb(12.156863%,46.666667%,70.588237%);stroke-opacity:1;stroke-miterlimit:4;" d="M 0.000549316 3.000198 C 0.794495 3.000198 1.559143 2.683792 2.121643 2.121292 C 2.684143 1.558792 3.000549 0.797073 3.000549 0.000198364 C 3.000549 -0.796677 2.684143 -1.558395 2.121643 -2.120895 C 1.559143 -2.683395 0.794495 -2.999802 0.000549316 -2.999802 C -0.796326 -2.999802 -1.558044 -2.683395 -2.120544 -2.120895 C -2.683044 -1.558395 -2.999451 -0.796677 -2.999451 0.000198364 C -2.999451 0.797073 -2.683044 1.558792 -2.120544 2.121292 C -1.558044 2.683792 -0.796326 3.000198 0.000549316 3.000198 Z M 0.000549316 3.000198 " transform="matrix(1.333333,0,0,1.333333,171.979736,126.605204)"/>
<path style="fill-rule:nonzero;fill:rgb(12.156863%,46.666667%,70.588237%);fill-opacity:1;stroke-width:1;stroke-linecap:butt;stroke-linejoin:round;stroke:rgb(12.156863%,46.666667%,70.588237%);stroke-opacity:1;stroke-miterlimit:4;" d="M 0.000488281 3.001099 C 0.794434 3.001099 1.559082 2.684692 2.121582 2.122192 C 2.684082 1.559692 3.000488 0.795044 3.000488 0.00109863 C 3.000488 -0.795776 2.684082 -1.557495 2.121582 -2.119995 C 1.559082 -2.682495 0.794434 -2.998901 0.000488281 -2.998901 C -0.796387 -2.998901 -1.558105 -2.682495 -2.120605 -2.119995 C -2.683105 -1.557495 -2.999512 -0.795776 -2.999512 0.00109863 C -2.999512 0.795044 -2.683105 1.559692 -2.120605 2.122192 C -1.558105 2.684692 -0.796387 3.001099 0.000488281 3.001099 Z M 0.000488281 3.001099 " transform="matrix(1.333333,0,0,1.333333,215.823568,92.029785)"/>
<path style="fill-rule:nonzero;fill:rgb(12.156863%,46.666667%,70.588237%);fill-opacity:1;stroke-width:1;stroke-linecap:butt;stroke-linejoin:round;stroke:rgb(12.156863%,46.666667%,70.588237%);stroke-opacity:1;stroke-miterlimit:4;" d="M 0.000152588 3.001347 C 0.797028 3.001347 1.558746 2.68494 2.121246 2.12244 C 2.683746 1.55994 3.000153 0.795292 3.000153 0.00134659 C 3.000153 -0.795528 2.683746 -1.560177 2.121246 -2.122677 C 1.558746 -2.685177 0.797028 -2.998653 0.000152588 -2.998653 C -0.796722 -2.998653 -1.558441 -2.685177 -2.120941 -2.122677 C -2.683441 -1.560177 -2.999847 -0.795528 -2.999847 0.00134659 C -2.999847 0.795292 -2.683441 1.55994 -2.120941 2.12244 C -1.558441 2.68494 -0.796722 3.001347 0.000152588 3.001347 Z M 0.000152588 3.001347 " transform="matrix(1.333333,0,0,1.333333,244.675578,56.966955)"/>
<path style="fill-rule:nonzero;fill:rgb(12.156863%,46.666667%,70.588237%);fill-opacity:1;stroke-width:1;stroke-linecap:butt;stroke-linejoin:round;stroke:rgb(12.156863%,46.666667%,70.588237%);stroke-opacity:1;stroke-miterlimit:4;" d="M 0.000473022 3.000504 C 0.794418 3.000504 1.559067 2.684097 2.121567 2.121597 C 2.684067 1.559097 3.000473 0.794449 3.000473 0.00050354 C 3.000473 -0.796371 2.684067 -1.55809 2.121567 -2.12059 C 1.559067 -2.68309 0.794418 -2.999496 0.000473022 -2.999496 C -0.796402 -2.999496 -1.558121 -2.68309 -2.120621 -2.12059 C -2.683121 -1.55809 -2.999527 -0.796371 -2.999527 0.00050354 C -2.999527 0.794449 -2.683121 1.559097 -2.120621 2.121597 C -1.558121 2.684097 -0.796402 3.000504 0.000473022 3.000504 Z M 0.000473022 3.000504 " transform="matrix(1.333333,0,0,1.333333,214.620463,88.55011)"/>
<path style="fill-rule:nonzero;fill:rgb(12.156863%,46.666667%,70.588237%);fill-opacity:1;stroke-width:1;stroke-linecap:butt;stroke-linejoin:round;stroke:rgb(12.156863%,46.666667%,70.588237%);stroke-opacity:1;stroke-miterlimit:4;" d="M 0.00109863 2.999119 C 0.795044 2.999119 1.559692 2.682713 2.122192 2.120213 C 2.684692 1.557713 3.001099 0.795994 3.001099 -0.000881195 C 3.001099 -0.794827 2.684692 -1.559475 2.122192 -2.121975 C 1.559692 -2.684475 0.795044 -3.000881 0.00109863 -3.000881 C -0.795776 -3.000881 -1.557495 -2.684475 -2.119995 -2.121975 C -2.682495 -1.559475 -2.998901 -0.794827 -2.998901 -0.000881195 C -2.998901 0.795994 -2.682495 1.557713 -2.119995 2.120213 C -1.557495 2.682713 -0.795776 2.999119 0.00109863 2.999119 Z M 0.00109863 2.999119 " transform="matrix(1.333333,0,0,1.333333,212.17041,80.895706)"/>
<path style="fill-rule:nonzero;fill:rgb(12.156863%,46.666667%,70.588237%);fill-opacity:1;stroke-width:1;stroke-linecap:butt;stroke-linejoin:round;stroke:rgb(12.156863%,46.666667%,70.588237%);stroke-opacity:1;stroke-miterlimit:4;" d="M -0.000732422 2.999229 C 0.796143 2.999229 1.557861 2.682823 2.120361 2.120323 C 2.682861 1.557823 2.999268 0.796104 2.999268 -0.000770569 C 2.999268 -0.794716 2.682861 -1.559364 2.120361 -2.121864 C 1.557861 -2.684364 0.796143 -3.000771 -0.000732422 -3.000771 C -0.794678 -3.000771 -1.559326 -2.684364 -2.121826 -2.121864 C -2.684326 -1.559364 -3.000732 -0.794716 -3.000732 -0.000770569 C -3.000732 0.796104 -2.684326 1.557823 -2.121826 2.120323 C -1.559326 2.682823 -0.794678 2.999229 -0.000732422 2.999229 Z M -0.000732422 2.999229 " transform="matrix(1.333333,0,0,1.333333,188.719727,121.305715)"/>
<path style="fill-rule:nonzero;fill:rgb(12.156863%,46.666667%,70.588237%);fill-opacity:1;stroke-width:1;stroke-linecap:butt;stroke-linejoin:round;stroke:rgb(12.156863%,46.666667%,70.588237%);stroke-opacity:1;stroke-miterlimit:4;" d="M -0.000640869 2.999992 C 0.796234 2.999992 1.557953 2.683586 2.120453 2.121086 C 2.682953 1.558586 2.999359 0.796867 2.999359 -0.00000762939 C 2.999359 -0.796883 2.682953 -1.558601 2.120453 -2.121101 C 1.557953 -2.683601 0.796234 -3.000008 -0.000640869 -3.000008 C -0.794586 -3.000008 -1.559235 -2.683601 -2.121735 -2.121101 C -2.684235 -1.558601 -3.000641 -0.796883 -3.000641 -0.00000762939 C -3.000641 0.796867 -2.684235 1.558586 -2.121735 2.121086 C -1.559235 2.683586 -0.794586 2.999992 -0.000640869 2.999992 Z M -0.000640869 2.999992 " transform="matrix(1.333333,0,0,1.333333,161.442261,112.238291)"/>
<path style="fill-rule:nonzero;fill:rgb(12.156863%,46.666667%,70.588237%);fill-opacity:1;stroke-width:1;stroke-linecap:butt;stroke-linejoin:round;stroke:rgb(12.156863%,46.666667%,70.588237%);stroke-opacity:1;stroke-miterlimit:4;" d="M 0.000228882 2.999771 C 0.794174 2.999771 1.558823 2.683365 2.121323 2.120865 C 2.683823 1.558365 3.000229 0.796646 3.000229 -0.000228882 C 3.000229 -0.794174 2.683823 -1.558823 2.121323 -2.121323 C 1.558823 -2.683823 0.794174 -3.000229 0.000228882 -3.000229 C -0.796646 -3.000229 -1.558365 -2.683823 -2.120865 -2.121323 C -2.683365 -1.558823 -2.999771 -0.794174 -2.999771 -0.000228882 C -2.999771 0.796646 -2.683365 1.558365 -2.120865 2.120865 C -1.558365 2.683365 -0.796646 2.999771 0.000228882 2.999771 Z M 0.000228882 2.999771 " transform="matrix(1.333333,0,0,1.333333,191.034851,73.750305)"/>
<path style="fill-rule:nonzero;fill:rgb(12.156863%,46.666667%,70.588237%);fill-opacity:1;stroke-width:1;stroke-linecap:butt;stroke-linejoin:round;stroke:rgb(12.156863%,46.666667%,70.588237%);stroke-opacity:1;stroke-miterlimit:4;" d="M 0.000854492 3.000137 C 0.7948 3.000137 1.559448 2.683731 2.121948 2.121231 C 2.684448 1.558731 3.000854 0.797012 3.000854 0.000137329 C 3.000854 -0.796738 2.684448 -1.558456 2.121948 -2.120956 C 1.559448 -2.683456 0.7948 -2.999863 0.000854492 -2.999863 C -0.796021 -2.999863 -1.557739 -2.683456 -2.120239 -2.120956 C -2.682739 -1.558456 -2.999146 -0.796738 -2.999146 0.000137329 C -2.999146 0.797012 -2.682739 1.558731 -2.120239 2.121231 C -1.557739 2.683731 -0.796021 3.000137 0.000854492 3.000137 Z M 0.000854492 3.000137 " transform="matrix(1.333333,0,0,1.333333,198.694173,114.980286)"/>
<path style="fill-rule:nonzero;fill:rgb(12.156863%,46.666667%,70.588237%);fill-opacity:1;stroke-width:1;stroke-linecap:butt;stroke-linejoin:round;stroke:rgb(12.156863%,46.666667%,70.588237%);stroke-opacity:1;stroke-miterlimit:4;" d="M -0.00120544 2.999901 C 0.79567 2.999901 1.557388 2.683495 2.119888 2.120995 C 2.685318 1.558495 2.998795 0.796776 2.998795 -0.0000991821 C 2.998795 -0.796974 2.685318 -1.558693 2.119888 -2.121193 C 1.557388 -2.683693 0.79567 -3.000099 -0.00120544 -3.000099 C -0.795151 -3.000099 -1.559799 -2.683693 -2.122299 -2.121193 C -2.684799 -1.558693 -3.001205 -0.796974 -3.001205 -0.0000991821 C -3.001205 0.796776 -2.684799 1.558495 -2.122299 2.120995 C -1.559799 2.683495 -0.795151 2.999901 -0.00120544 2.999901 Z M -0.00120544 2.999901 " transform="matrix(1.333333,0,0,1.333333,191.622701,110.269663)"/>
<path style="fill-rule:nonzero;fill:rgb(12.156863%,46.666667%,70.588237%);fill-opacity:1;stroke-width:1;stroke-linecap:butt;stroke-linejoin:round;stroke:rgb(12.156863%,46.666667%,70.588237%);stroke-opacity:1;stroke-miterlimit:4;" d="M 0.0000762939 2.998825 C 0.796951 2.998825 1.55867 2.685349 2.12117 2.119919 C 2.68367 1.557419 3.000076 0.7957 3.000076 -0.00117493 C 3.000076 -0.79512 2.68367 -1.559769 2.12117 -2.122269 C 1.55867 -2.684769 0.796951 -3.001175 0.0000762939 -3.001175 C -0.796799 -3.001175 -1.558517 -2.684769 -2.121017 -2.122269 C -2.683517 -1.559769 -2.999924 -0.79512 -2.999924 -0.00117493 C -2.999924 0.7957 -2.683517 1.557419 -2.121017 2.119919 C -1.558517 2.685349 -0.796799 2.998825 0.0000762939 2.998825 Z M 0.0000762939 2.998825 " transform="matrix(1.333333,0,0,1.333333,194.933492,91.817973)"/>
<path style="fill-rule:nonzero;fill:rgb(12.156863%,46.666667%,70.588237%);fill-opacity:1;stroke-width:1;stroke-linecap:butt;stroke-linejoin:round;stroke:rgb(12.156863%,46.666667%,70.588237%);stroke-opacity:1;stroke-miterlimit:4;" d="M -0.001297 2.999046 C 0.795578 2.999046 1.557297 2.68264 2.122726 2.12014 C 2.685226 1.55764 2.998703 0.795921 2.998703 -0.000953674 C 2.998703 -0.794899 2.685226 -1.559547 2.122726 -2.122047 C 1.557297 -2.684547 0.795578 -3.000954 -0.001297 -3.000954 C -0.795242 -3.000954 -1.559891 -2.684547 -2.122391 -2.122047 C -2.684891 -1.559547 -3.001297 -0.794899 -3.001297 -0.000953674 C -3.001297 0.795921 -2.684891 1.55764 -2.122391 2.12014 C -1.559891 2.68264 -0.795242 2.999046 -0.001297 2.999046 Z M -0.001297 2.999046 " transform="matrix(1.333333,0,0,1.333333,183.025167,100.864553)"/>
<path style="fill-rule:nonzero;fill:rgb(12.156863%,46.666667%,70.588237%);fill-opacity:1;stroke-width:1;stroke-linecap:butt;stroke-linejoin:round;stroke:rgb(12.156863%,46.666667%,70.588237%);stroke-opacity:1;stroke-miterlimit:4;" d="M 0.000587463 2.999901 C 0.794533 2.999901 1.559181 2.683495 2.121681 2.120995 C 2.684181 1.558495 3.000587 0.796776 3.000587 -0.0000991821 C 3.000587 -0.796974 2.684181 -1.558693 2.121681 -2.121193 C 1.559181 -2.683693 0.794533 -3.000099 0.000587463 -3.000099 C -0.796288 -3.000099 -1.558006 -2.683693 -2.120506 -2.121193 C -2.683006 -1.558693 -2.999413 -0.796974 -2.999413 -0.0000991821 C -2.999413 0.796776 -2.683006 1.558495 -2.120506 2.120995 C -1.558006 2.683495 -0.796288 2.999901 0.000587463 2.999901 Z M 0.000587463 2.999901 " transform="matrix(1.333333,0,0,1.333333,168.77656,132.339976)"/>
<path style="fill-rule:nonzero;fill:rgb(12.156863%,46.666667%,70.588237%);fill-opacity:1;stroke-width:1;stroke-linecap:butt;stroke-linejoin:round;stroke:rgb(12.156863%,46.666667%,70.588237%);stroke-opacity:1;stroke-miterlimit:4;" d="M -0.000442505 2.999065 C 0.796432 2.999065 1.558151 2.682659 2.120651 2.120159 C 2.683151 1.557659 2.999557 0.79594 2.999557 -0.000934601 C 2.999557 -0.79488 2.683151 -1.559528 2.120651 -2.122028 C 1.558151 -2.684528 0.796432 -3.000935 -0.000442505 -3.000935 C -0.794388 -3.000935 -1.559036 -2.684528 -2.121536 -2.122028 C -2.684036 -1.559528 -3.000443 -0.79488 -3.000443 -0.000934601 C -3.000443 0.79594 -2.684036 1.557659 -2.121536 2.120159 C -1.559036 2.682659 -0.794388 2.999065 -0.000442505 2.999065 Z M -0.000442505 2.999065 " transform="matrix(1.333333,0,0,1.333333,259.379496,39.165309)"/>
<path style="fill-rule:nonzero;fill:rgb(12.156863%,46.666667%,70.588237%);fill-opacity:1;stroke-width:1;stroke-linecap:butt;stroke-linejoin:round;stroke:rgb(12.156863%,46.666667%,70.588237%);stroke-opacity:1;stroke-miterlimit:4;" d="M -0.000190735 3.001335 C 0.796684 3.001335 1.558403 2.684929 2.120903 2.122429 C 2.683403 1.559929 2.999809 0.79528 2.999809 0.00133514 C 2.999809 -0.79554 2.683403 -1.560188 2.120903 -2.122688 C 1.558403 -2.685188 0.796684 -2.998665 -0.000190735 -2.998665 C -0.797066 -2.998665 -1.558784 -2.685188 -2.121284 -2.122688 C -2.683784 -1.560188 -3.000191 -0.79554 -3.000191 0.00133514 C -3.000191 0.79528 -2.683784 1.559929 -2.121284 2.122429 C -1.558784 2.684929 -0.797066 3.001335 -0.000190735 3.001335 Z M -0.000190735 3.001335 " transform="matrix(1.333333,0,0,1.333333,169.156504,124.744314)"/>
<path style="fill-rule:nonzero;fill:rgb(12.156863%,46.666667%,70.588237%);fill-opacity:1;stroke-width:1;stroke-linecap:butt;stroke-linejoin:round;stroke:rgb(12.156863%,46.666667%,70.588237%);stroke-opacity:1;stroke-miterlimit:4;" d="M -0.000671387 3.001038 C 0.796204 3.001038 1.557922 2.684631 2.120422 2.122131 C 2.682922 1.559631 2.999329 0.794983 2.999329 0.0010376 C 2.999329 -0.795837 2.682922 -1.557556 2.120422 -2.120056 C 1.557922 -2.682556 0.796204 -2.998962 -0.000671387 -2.998962 C -0.794617 -2.998962 -1.559265 -2.682556 -2.121765 -2.120056 C -2.684265 -1.557556 -3.000671 -0.795837 -3.000671 0.0010376 C -3.000671 0.794983 -2.684265 1.559631 -2.121765 2.122131 C -1.559265 2.684631 -0.794617 3.001038 -0.000671387 3.001038 Z M -0.000671387 3.001038 " transform="matrix(1.333333,0,0,1.333333,210.914958,82.936117)"/>
<path style="fill-rule:nonzero;fill:rgb(12.156863%,46.666667%,70.588237%);fill-opacity:1;stroke-width:1;stroke-linecap:butt;stroke-linejoin:round;stroke:rgb(12.156863%,46.666667%,70.588237%);stroke-opacity:1;stroke-miterlimit:4;" d="M 0.000640869 2.999359 C 0.794586 2.999359 1.559235 2.682953 2.121735 2.120453 C 2.684235 1.557953 3.000641 0.796234 3.000641 -0.000640869 C 3.000641 -0.794586 2.684235 -1.559235 2.121735 -2.121735 C 1.559235 -2.684235 0.794586 -3.000641 0.000640869 -3.000641 C -0.796234 -3.000641 -1.557953 -2.684235 -2.120453 -2.121735 C -2.682953 -1.559235 -2.999359 -0.794586 -2.999359 -0.000640869 C -2.999359 0.796234 -2.682953 1.557953 -2.120453 2.120453 C -1.557953 2.682953 -0.796234 2.999359 0.000640869 2.999359 Z M 0.000640869 2.999359 " transform="matrix(1.333333,0,0,1.333333,224.342896,57.965698)"/>
<path style="fill-rule:nonzero;fill:rgb(12.156863%,46.666667%,70.588237%);fill-opacity:1;stroke-width:1;stroke-linecap:butt;stroke-linejoin:round;stroke:rgb(12.156863%,46.666667%,70.588237%);stroke-opacity:1;stroke-miterlimit:4;" d="M 0.000274658 2.99968 C 0.79422 2.99968 1.558868 2.683273 2.121368 2.120773 C 2.683868 1.558273 3.000275 0.796555 3.000275 -0.000320435 C 3.000275 -0.794266 2.683868 -1.558914 2.121368 -2.121414 C 1.558868 -2.683914 0.79422 -3.00032 0.000274658 -3.00032 C -0.7966 -3.00032 -1.558319 -2.683914 -2.120819 -2.121414 C -2.683319 -1.558914 -2.999725 -0.794266 -2.999725 -0.000320435 C -2.999725 0.796555 -2.683319 1.558273 -2.120819 2.120773 C -1.558319 2.683273 -0.7966 2.99968 0.000274658 2.99968 Z M 0.000274658 2.99968 " transform="matrix(1.333333,0,0,1.333333,204.366821,97.41449)"/>
<path style="fill-rule:nonzero;fill:rgb(12.156863%,46.666667%,70.588237%);fill-opacity:1;stroke-width:1;stroke-linecap:butt;stroke-linejoin:round;stroke:rgb(12.156863%,46.666667%,70.588237%);stroke-opacity:1;stroke-miterlimit:4;" d="M 0.000709534 3.000748 C 0.794655 3.000748 1.559303 2.684341 2.121803 2.121841 C 2.684303 1.559341 3.00071 0.794693 3.00071 0.000747681 C 3.00071 -0.796127 2.684303 -1.557846 2.121803 -2.120346 C 1.559303 -2.682846 0.794655 -2.999252 0.000709534 -2.999252 C -0.796165 -2.999252 -1.557884 -2.682846 -2.120384 -2.120346 C -2.682884 -1.557846 -2.99929 -0.796127 -2.99929 0.000747681 C -2.99929 0.794693 -2.682884 1.559341 -2.120384 2.121841 C -1.557884 2.684341 -0.796165 3.000748 0.000709534 3.000748 Z M 0.000709534 3.000748 " transform="matrix(1.333333,0,0,1.333333,162.620148,111.819316)"/>
<path style="fill-rule:nonzero;fill:rgb(12.156863%,46.666667%,70.588237%);fill-opacity:1;stroke-width:1;stroke-linecap:butt;stroke-linejoin:round;stroke:rgb(12.156863%,46.666667%,70.588237%);stroke-opacity:1;stroke-miterlimit:4;" d="M -0.000656128 3 C 0.796219 3 1.557938 2.683594 2.120438 2.121094 C 2.682938 1.558594 2.999344 0.796875 2.999344 0.000000000000008882 C 2.999344 -0.796875 2.682938 -1.558594 2.120438 -2.121094 C 1.557938 -2.683594 0.796219 -3 -0.000656128 -3 C -0.794601 -3 -1.55925 -2.683594 -2.12175 -2.121094 C -2.68425 -1.558594 -3.000656 -0.796875 -3.000656 0.000000000000008882 C -3.000656 0.796875 -2.68425 1.558594 -2.12175 2.121094 C -1.55925 2.683594 -0.794601 3 -0.000656128 3 Z M -0.000656128 3 " transform="matrix(1.333333,0,0,1.333333,287.153219,18)"/>
<path style="fill-rule:nonzero;fill:rgb(12.156863%,46.666667%,70.588237%);fill-opacity:1;stroke-width:1;stroke-linecap:butt;stroke-linejoin:round;stroke:rgb(12.156863%,46.666667%,70.588237%);stroke-opacity:1;stroke-miterlimit:4;" d="M -0.00112915 2.999084 C 0.795746 2.999084 1.557465 2.682678 2.119965 2.120178 C 2.682465 1.557678 2.998871 0.795959 2.998871 -0.000915527 C 2.998871 -0.794861 2.682465 -1.559509 2.119965 -2.122009 C 1.557465 -2.684509 0.795746 -3.000916 -0.00112915 -3.000916 C -0.795074 -3.000916 -1.559723 -2.684509 -2.122223 -2.122009 C -2.684723 -1.559509 -3.001129 -0.794861 -3.001129 -0.000915527 C -3.001129 0.795959 -2.684723 1.557678 -2.122223 2.120178 C -1.559723 2.682678 -0.795074 2.999084 -0.00112915 2.999084 Z M -0.00112915 2.999084 " transform="matrix(1.333333,0,0,1.333333,245.403849,54.298096)"/>
<path style="fill-rule:nonzero;fill:rgb(12.156863%,46.666667%,70.588237%);fill-opacity:1;stroke-width:1;stroke-linecap:butt;stroke-linejoin:round;stroke:rgb(12.156863%,46.666667%,70.588237%);stroke-opacity:1;stroke-miterlimit:4;" d="M -0.000244141 3.000259 C 0.796631 3.000259 1.55835 2.683853 2.12085 2.121353 C 2.68335 1.558853 2.999756 0.794205 2.999756 0.000259399 C 2.999756 -0.796616 2.68335 -1.558334 2.12085 -2.120834 C 1.55835 -2.683334 0.796631 -2.999741 -0.000244141 -2.999741 C -0.794189 -2.999741 -1.558838 -2.683334 -2.121338 -2.120834 C -2.683838 -1.558334 -3.000244 -0.796616 -3.000244 0.000259399 C -3.000244 0.794205 -2.683838 1.558853 -2.121338 2.121353 C -1.558838 2.683853 -0.794189 3.000259 -0.000244141 3.000259 Z M -0.000244141 3.000259 " transform="matrix(1.333333,0,0,1.333333,201.715169,100.288717)"/>
<path style="fill-rule:nonzero;fill:rgb(12.156863%,46.666667%,70.588237%);fill-opacity:1;stroke-width:1;stroke-linecap:butt;stroke-linejoin:round;stroke:rgb(12.156863%,46.666667%,70.588237%);stroke-opacity:1;stroke-miterlimit:4;" d="M -0.000137329 2.999596 C 0.796738 2.999596 1.558456 2.683189 2.120956 2.120689 C 2.683456 1.558189 2.999863 0.796471 2.999863 -0.000404358 C 2.999863 -0.79435 2.683456 -1.558998 2.120956 -2.121498 C 1.558456 -2.683998 0.796738 -3.000404 -0.000137329 -3.000404 C -0.797012 -3.000404 -1.558731 -2.683998 -2.121231 -2.121498 C -2.683731 -1.558998 -3.000137 -0.79435 -3.000137 -0.000404358 C -3.000137 0.796471 -2.683731 1.558189 -2.121231 2.120689 C -1.558731 2.683189 -0.797012 2.999596 -0.000137329 2.999596 Z M -0.000137329 2.999596 " transform="matrix(1.333333,0,0,1.333333,198.547058,92.188039)"/>
<path style="fill-rule:nonzero;fill:rgb(12.156863%,46.666667%,70.588237%);fill-opacity:1;stroke-width:1;stroke-linecap:butt;stroke-linejoin:round;stroke:rgb(12.156863%,46.666667%,70.588237%);stroke-opacity:1;stroke-miterlimit:4;" d="M -0.000259399 2.999313 C 0.796616 2.999313 1.558334 2.682907 2.120834 2.120407 C 2.683334 1.557907 2.999741 0.796188 2.999741 -0.000686646 C 2.999741 -0.794632 2.683334 -1.55928 2.120834 -2.12178 C 1.558334 -2.68428 0.796616 -3.000687 -0.000259399 -3.000687 C -0.794205 -3.000687 -1.558853 -2.68428 -2.121353 -2.12178 C -2.683853 -1.55928 -3.000259 -0.794632 -3.000259 -0.000686646 C -3.000259 0.796188 -2.683853 1.557907 -2.121353 2.120407 C -1.558853 2.682907 -0.794205 2.999313 -0.000259399 2.999313 Z M -0.000259399 2.999313 " transform="matrix(1.333333,0,0,1.333333,213.000346,83.637634)"/>
<path style="fill-rule:nonzero;fill:rgb(12.156863%,46.666667%,70.588237%);fill-opacity:1;stroke-width:1;stroke-linecap:butt;stroke-linejoin:round;stroke:rgb(12.156863%,46.666667%,70.588237%);stroke-opacity:1;stroke-miterlimit:4;" d="M -0.000259399 2.999981 C 0.796616 2.999981 1.558334 2.683575 2.120834 2.121075 C 2.683334 1.558575 2.999741 0.796856 2.999741 -0.0000190735 C 2.999741 -0.796894 2.683334 -1.558613 2.120834 -2.121113 C 1.558334 -2.683613 0.796616 -3.000019 -0.000259399 -3.000019 C -0.794205 -3.000019 -1.558853 -2.683613 -2.121353 -2.121113 C -2.683853 -1.558613 -3.000259 -0.796894 -3.000259 -0.0000190735 C -3.000259 0.796856 -2.683853 1.558575 -2.121353 2.121075 C -1.558853 2.683575 -0.794205 2.999981 -0.000259399 2.999981 Z M -0.000259399 2.999981 " transform="matrix(1.333333,0,0,1.333333,261.09019,41.082057)"/>
<path style="fill-rule:nonzero;fill:rgb(12.156863%,46.666667%,70.588237%);fill-opacity:1;stroke-width:1;stroke-linecap:butt;stroke-linejoin:round;stroke:rgb(12.156863%,46.666667%,70.588237%);stroke-opacity:1;stroke-miterlimit:4;" d="M -0.000892639 3.000626 C 0.795982 3.000626 1.557701 2.684219 2.120201 2.121719 C 2.682701 1.559219 2.999107 0.794571 2.999107 0.00062561 C 2.999107 -0.796249 2.682701 -1.557968 2.120201 -2.120468 C 1.557701 -2.682968 0.795982 -2.999374 -0.000892639 -2.999374 C -0.794838 -2.999374 -1.559486 -2.682968 -2.121986 -2.120468 C -2.684486 -1.557968 -3.000893 -0.796249 -3.000893 0.00062561 C -3.000893 0.794571 -2.684486 1.559219 -2.121986 2.121719 C -1.559486 2.684219 -0.794838 3.000626 -0.000892639 3.000626 Z M -0.000892639 3.000626 " transform="matrix(1.333333,0,0,1.333333,167.704315,137.288228)"/>
<path style="fill-rule:nonzero;fill:rgb(12.156863%,46.666667%,70.588237%);fill-opacity:1;stroke-width:1;stroke-linecap:butt;stroke-linejoin:round;stroke:rgb(12.156863%,46.666667%,70.588237%);stroke-opacity:1;stroke-miterlimit:4;" d="M 0.000305176 2.999317 C 0.79425 2.999317 1.558899 2.682911 2.121399 2.120411 C 2.683899 1.557911 3.000305 0.796192 3.000305 -0.000682831 C 3.000305 -0.794628 2.683899 -1.559277 2.121399 -2.121777 C 1.558899 -2.684277 0.79425 -3.000683 0.000305176 -3.000683 C -0.79657 -3.000683 -1.558289 -2.684277 -2.120789 -2.121777 C -2.683289 -1.559277 -2.999695 -0.794628 -2.999695 -0.000682831 C -2.999695 0.796192 -2.683289 1.557911 -2.120789 2.120411 C -1.558289 2.682911 -0.79657 2.999317 0.000305176 2.999317 Z M 0.000305176 2.999317 " transform="matrix(1.333333,0,0,1.333333,216.796468,80.102473)"/>
<path style="fill-rule:nonzero;fill:rgb(12.156863%,46.666667%,70.588237%);fill-opacity:1;stroke-width:1;stroke-linecap:butt;stroke-linejoin:round;stroke:rgb(12.156863%,46.666667%,70.588237%);stroke-opacity:1;stroke-miterlimit:4;" d="M -0.00138855 3.000103 C 0.795486 3.000103 1.560135 2.683697 2.122635 2.121197 C 2.685135 1.558697 2.998611 0.796978 2.998611 0.000102997 C 2.998611 -0.796772 2.685135 -1.558491 2.122635 -2.120991 C 1.560135 -2.683491 0.795486 -2.999897 -0.00138855 -2.999897 C -0.795334 -2.999897 -1.559982 -2.683491 -2.122482 -2.120991 C -2.684982 -1.558491 -3.001389 -0.796772 -3.001389 0.000102997 C -3.001389 0.796978 -2.684982 1.558697 -2.122482 2.121197 C -1.559982 2.683697 -0.795334 3.000103 -0.00138855 3.000103 Z M -0.00138855 3.000103 " transform="matrix(1.333333,0,0,1.333333,258.650289,31.292831)"/>
<path style="fill-rule:nonzero;fill:rgb(12.156863%,46.666667%,70.588237%);fill-opacity:1;stroke-width:1;stroke-linecap:butt;stroke-linejoin:round;stroke:rgb(12.156863%,46.666667%,70.588237%);stroke-opacity:1;stroke-miterlimit:4;" d="M -0.000747681 2.998985 C 0.796127 2.998985 1.557846 2.682579 2.120346 2.120079 C 2.682846 1.557579 2.999252 0.79586 2.999252 -0.00101471 C 2.999252 -0.79496 2.682846 -1.559608 2.120346 -2.122108 C 1.557846 -2.684608 0.796127 -3.001015 -0.000747681 -3.001015 C -0.794693 -3.001015 -1.559341 -2.684608 -2.121841 -2.122108 C -2.684341 -1.559608 -3.000748 -0.79496 -3.000748 -0.00101471 C -3.000748 0.79586 -2.684341 1.557579 -2.121841 2.120079 C -1.559341 2.682579 -0.794693 2.998985 -0.000747681 2.998985 Z M -0.000747681 2.998985 " transform="matrix(1.333333,0,0,1.333333,176.782247,104.763072)"/>
<path style="fill-rule:nonzero;fill:rgb(12.156863%,46.666667%,70.588237%);fill-opacity:1;stroke-width:1;stroke-linecap:butt;stroke-linejoin:round;stroke:rgb(12.156863%,46.666667%,70.588237%);stroke-opacity:1;stroke-miterlimit:4;" d="M -0.00118256 3.000175 C 0.795692 3.000175 1.557411 2.683769 2.119911 2.121269 C 2.685341 1.558769 2.998817 0.79705 2.998817 0.000175476 C 2.998817 -0.7967 2.685341 -1.558418 2.119911 -2.120918 C 1.557411 -2.683418 0.795692 -2.999825 -0.00118256 -2.999825 C -0.795128 -2.999825 -1.559776 -2.683418 -2.122276 -2.120918 C -2.684776 -1.558418 -3.001183 -0.7967 -3.001183 0.000175476 C -3.001183 0.79705 -2.684776 1.558769 -2.122276 2.121269 C -1.559776 2.683769 -0.795128 3.000175 -0.00118256 3.000175 Z M -0.00118256 3.000175 " transform="matrix(1.333333,0,0,1.333333,169.103139,119.304454)"/>
<path style="fill-rule:nonzero;fill:rgb(12.156863%,46.666667%,70.588237%);fill-opacity:1;stroke-width:1;stroke-linecap:butt;stroke-linejoin:round;stroke:rgb(12.156863%,46.666667%,70.588237%);stroke-opacity:1;stroke-miterlimit:4;" d="M 0.000518799 2.999359 C 0.794464 2.999359 1.559113 2.682953 2.121613 2.120453 C 2.684113 1.557953 3.000519 0.796234 3.000519 -0.000640869 C 3.000519 -0.794586 2.684113 -1.559235 2.121613 -2.121735 C 1.559113 -2.684235 0.794464 -3.000641 0.000518799 -3.000641 C -0.796356 -3.000641 -1.558075 -2.684235 -2.120575 -2.121735 C -2.683075 -1.559235 -2.999481 -0.794586 -2.999481 -0.000640869 C -2.999481 0.796234 -2.683075 1.557953 -2.120575 2.120453 C -1.558075 2.682953 -0.796356 2.999359 0.000518799 2.999359 Z M 0.000518799 2.999359 " transform="matrix(1.333333,0,0,1.333333,174.61259,122.485229)"/>
<path style="fill-rule:nonzero;fill:rgb(12.156863%,46.666667%,70.588237%);fill-opacity:1;stroke-width:1;stroke-linecap:butt;stroke-linejoin:round;stroke:rgb(12.156863%,46.666667%,70.588237%);stroke-opacity:1;stroke-miterlimit:4;" d="M -0.000167847 2.999767 C 0.796707 2.999767 1.558426 2.683361 2.120926 2.120861 C 2.683426 1.558361 2.999832 0.796642 2.999832 -0.000232697 C 2.999832 -0.794178 2.683426 -1.558826 2.120926 -2.121326 C 1.558426 -2.683826 0.796707 -3.000233 -0.000167847 -3.000233 C -0.797043 -3.000233 -1.558762 -2.683826 -2.121262 -2.121326 C -2.683762 -1.558826 -3.000168 -0.794178 -3.000168 -0.000232697 C -3.000168 0.796642 -2.683762 1.558361 -2.121262 2.120861 C -1.558762 2.683361 -0.797043 2.999767 -0.000167847 2.999767 Z M -0.000167847 2.999767 " transform="matrix(1.333333,0,0,1.333333,239.523661,68.840154)"/>
<path style="fill-rule:nonzero;fill:rgb(12.156863%,46.666667%,70.588237%);fill-opacity:1;stroke-width:1;stroke-linecap:butt;stroke-linejoin:round;stroke:rgb(12.156863%,46.666667%,70.588237%);stroke-opacity:1;stroke-miterlimit:4;" d="M -0.0000457764 3.00074 C 0.796829 3.00074 1.558548 2.684334 2.121048 2.121834 C 2.683548 1.559334 2.999954 0.794685 2.999954 0.000740051 C 2.999954 -0.796135 2.683548 -1.557854 2.121048 -2.120354 C 1.558548 -2.682854 0.796829 -2.99926 -0.0000457764 -2.99926 C -0.796921 -2.99926 -1.55864 -2.682854 -2.12114 -2.120354 C -2.68364 -1.557854 -3.000046 -0.796135 -3.000046 0.000740051 C -3.000046 0.794685 -2.68364 1.559334 -2.12114 2.121834 C -1.55864 2.684334 -0.796921 3.00074 -0.0000457764 3.00074 Z M -0.0000457764 3.00074 " transform="matrix(1.333333,0,0,1.333333,223.078186,89.78417)"/>
<path style="fill-rule:nonzero;fill:rgb(12.156863%,46.666667%,70.588237%);fill-opacity:1;stroke-width:1;stroke-linecap:butt;stroke-linejoin:round;stroke:rgb(12.156863%,46.666667%,70.588237%);stroke-opacity:1;stroke-miterlimit:4;" d="M 0.0000610352 2.999256 C 0.796936 2.999256 1.558655 2.68285 2.121155 2.12035 C 2.683655 1.55785 3.000061 0.796131 3.000061 -0.000743866 C 3.000061 -0.794689 2.683655 -1.559338 2.121155 -2.121838 C 1.558655 -2.684338 0.796936 -3.000744 0.0000610352 -3.000744 C -0.796814 -3.000744 -1.558533 -2.684338 -2.121033 -2.121838 C -2.683533 -1.559338 -2.999939 -0.794689 -2.999939 -0.000743866 C -2.999939 0.796131 -2.683533 1.55785 -2.121033 2.12035 C -1.558533 2.68285 -0.796814 2.999256 0.0000610352 2.999256 Z M 0.0000610352 2.999256 " transform="matrix(1.333333,0,0,1.333333,188.648356,74.915054)"/>
<path style="fill-rule:nonzero;fill:rgb(12.156863%,46.666667%,70.588237%);fill-opacity:1;stroke-width:1;stroke-linecap:butt;stroke-linejoin:round;stroke:rgb(12.156863%,46.666667%,70.588237%);stroke-opacity:1;stroke-miterlimit:4;" d="M -0.000686646 3.000072 C 0.796188 3.000072 1.557907 2.683666 2.120407 2.121166 C 2.682907 1.558666 2.999313 0.796947 2.999313 0.0000724792 C 2.999313 -0.796803 2.682907 -1.558521 2.120407 -2.121021 C 1.557907 -2.683521 0.796188 -2.999928 -0.000686646 -2.999928 C -0.794632 -2.999928 -1.55928 -2.683521 -2.12178 -2.121021 C -2.68428 -1.558521 -3.000687 -0.796803 -3.000687 0.0000724792 C -3.000687 0.796947 -2.68428 1.558666 -2.12178 2.121166 C -1.55928 2.683666 -0.794632 3.000072 -0.000686646 3.000072 Z M -0.000686646 3.000072 " transform="matrix(1.333333,0,0,1.333333,214.719666,69.269435)"/>
<path style="fill-rule:nonzero;fill:rgb(12.156863%,46.666667%,70.588237%);fill-opacity:1;stroke-width:1;stroke-linecap:butt;stroke-linejoin:round;stroke:rgb(12.156863%,46.666667%,70.588237%);stroke-opacity:1;stroke-miterlimit:4;" d="M 0.000892639 3.001114 C 0.794838 3.001114 1.559486 2.684708 2.121986 2.122208 C 2.684486 1.559708 3.000893 0.795059 3.000893 0.00111389 C 3.000893 -0.795761 2.684486 -1.55748 2.121986 -2.11998 C 1.559486 -2.68248 0.794838 -2.998886 0.000892639 -2.998886 C -0.795982 -2.998886 -1.557701 -2.68248 -2.120201 -2.11998 C -2.682701 -1.55748 -2.999107 -0.795761 -2.999107 0.00111389 C -2.999107 0.795059 -2.682701 1.559708 -2.120201 2.122208 C -1.557701 2.684708 -0.795982 3.001114 0.000892639 3.001114 Z M 0.000892639 3.001114 " transform="matrix(1.333333,0,0,1.333333,165.729279,125.54539)"/>
<path style="fill-rule:nonzero;fill:rgb(12.156863%,46.666667%,70.588237%);fill-opacity:1;stroke-width:1;stroke-linecap:butt;stroke-linejoin:round;stroke:rgb(12.156863%,46.666667%,70.588237%);stroke-opacity:1;stroke-miterlimit:4;" d="M -0.000793457 2.999992 C 0.796082 2.999992 1.5578 2.683586 2.1203 2.121086 C 2.6828 1.558586 2.999207 0.796867 2.999207 -0.00000762939 C 2.999207 -0.796883 2.6828 -1.558601 2.1203 -2.121101 C 1.5578 -2.683601 0.796082 -3.000008 -0.000793457 -3.000008 C -0.794739 -3.000008 -1.559387 -2.683601 -2.121887 -2.121101 C -2.684387 -1.558601 -3.000793 -0.796883 -3.000793 -0.00000762939 C -3.000793 0.796867 -2.684387 1.558586 -2.121887 2.121086 C -1.559387 2.683586 -0.794739 2.999992 -0.000793457 2.999992 Z M -0.000793457 2.999992 " transform="matrix(1.333333,0,0,1.333333,139.985433,136.210948)"/>
<path style="fill-rule:nonzero;fill:rgb(12.156863%,46.666667%,70.588237%);fill-opacity:1;stroke-width:1;stroke-linecap:butt;stroke-linejoin:round;stroke:rgb(12.156863%,46.666667%,70.588237%);stroke-opacity:1;stroke-miterlimit:4;" d="M -0.00111389 3.00029 C 0.795761 3.00029 1.55748 2.683884 2.11998 2.121384 C 2.68248 1.558884 2.998886 0.794235 2.998886 0.000289917 C 2.998886 -0.796585 2.68248 -1.558304 2.11998 -2.120804 C 1.55748 -2.683304 0.795761 -2.99971 -0.00111389 -2.99971 C -0.795059 -2.99971 -1.559708 -2.683304 -2.122208 -2.120804 C -2.684708 -1.558304 -3.001114 -0.796585 -3.001114 0.000289917 C -3.001114 0.794235 -2.684708 1.558884 -2.122208 2.121384 C -1.559708 2.683884 -0.795059 3.00029 -0.00111389 3.00029 Z M -0.00111389 3.00029 " transform="matrix(1.333333,0,0,1.333333,199.161641,87.273051)"/>
<path style="fill-rule:nonzero;fill:rgb(12.156863%,46.666667%,70.588237%);fill-opacity:1;stroke-width:1;stroke-linecap:butt;stroke-linejoin:round;stroke:rgb(12.156863%,46.666667%,70.588237%);stroke-opacity:1;stroke-miterlimit:4;" d="M 0.0010376 3.000168 C 0.794983 3.000168 1.559631 2.683762 2.122131 2.121262 C 2.684631 1.558762 3.001038 0.797043 3.001038 0.000167847 C 3.001038 -0.796707 2.684631 -1.558426 2.122131 -2.120926 C 1.559631 -2.683426 0.794983 -2.999832 0.0010376 -2.999832 C -0.795837 -2.999832 -1.557556 -2.683426 -2.120056 -2.120926 C -2.682556 -1.558426 -2.998962 -0.796707 -2.998962 0.000167847 C -2.998962 0.797043 -2.682556 1.558762 -2.120056 2.121262 C -1.557556 2.683762 -0.795837 3.000168 0.0010376 3.000168 Z M 0.0010376 3.000168 " transform="matrix(1.333333,0,0,1.333333,209.115804,52.273214)"/>
<path style="fill-rule:nonzero;fill:rgb(12.156863%,46.666667%,70.588237%);fill-opacity:1;stroke-width:1;stroke-linecap:butt;stroke-linejoin:round;stroke:rgb(12.156863%,46.666667%,70.588237%);stroke-opacity:1;stroke-miterlimit:4;" d="M -0.000198364 3.000473 C 0.796677 3.000473 1.558395 2.684067 2.120895 2.121567 C 2.683395 1.559067 2.999802 0.794418 2.999802 0.000473022 C 2.999802 -0.796402 2.683395 -1.558121 2.120895 -2.120621 C 1.558395 -2.683121 0.796677 -2.999527 -0.000198364 -2.999527 C -0.797073 -2.999527 -1.558792 -2.683121 -2.121292 -2.120621 C -2.683792 -1.558121 -3.000198 -0.796402 -3.000198 0.000473022 C -3.000198 0.794418 -2.683792 1.559067 -2.121292 2.121567 C -1.558792 2.684067 -0.797073 3.000473 -0.000198364 3.000473 Z M -0.000198364 3.000473 " transform="matrix(1.333333,0,0,1.333333,212.109639,70.675151)"/>
<path style="fill-rule:nonzero;fill:rgb(12.156863%,46.666667%,70.588237%);fill-opacity:1;stroke-width:1;stroke-linecap:butt;stroke-linejoin:round;stroke:rgb(12.156863%,46.666667%,70.588237%);stroke-opacity:1;stroke-miterlimit:4;" d="M -0.00138855 3.001171 C 0.795486 3.001171 1.560135 2.684765 2.122635 2.122265 C 2.685135 1.559765 2.998611 0.795116 2.998611 0.00117111 C 2.998611 -0.795704 2.685135 -1.557423 2.122635 -2.119923 C 1.560135 -2.685352 0.795486 -2.998829 -0.00138855 -2.998829 C -0.795334 -2.998829 -1.559982 -2.685352 -2.122482 -2.119923 C -2.684982 -1.557423 -3.001389 -0.795704 -3.001389 0.00117111 C -3.001389 0.795116 -2.684982 1.559765 -2.122482 2.122265 C -1.559982 2.684765 -0.795334 3.001171 -0.00138855 3.001171 Z M -0.00138855 3.001171 " transform="matrix(1.333333,0,0,1.333333,190.818258,83.115626)"/>
<path style="fill-rule:nonzero;fill:rgb(12.156863%,46.666667%,70.588237%);fill-opacity:1;stroke-width:1;stroke-linecap:butt;stroke-linejoin:round;stroke:rgb(12.156863%,46.666667%,70.588237%);stroke-opacity:1;stroke-miterlimit:4;" d="M 0.0000686646 2.998611 C 0.796944 2.998611 1.558662 2.685135 2.121162 2.122635 C 2.683662 1.560135 3.000069 0.795486 3.000069 -0.00138855 C 3.000069 -0.795334 2.683662 -1.559982 2.121162 -2.122482 C 1.558662 -2.684982 0.796944 -3.001389 0.0000686646 -3.001389 C -0.796806 -3.001389 -1.558525 -2.684982 -2.121025 -2.122482 C -2.683525 -1.559982 -2.999931 -0.795334 -2.999931 -0.00138855 C -2.999931 0.795486 -2.683525 1.560135 -2.121025 2.122635 C -1.558525 2.685135 -0.796806 2.998611 0.0000686646 2.998611 Z M 0.0000686646 2.998611 " transform="matrix(1.333333,0,0,1.333333,167.42569,110.95107)"/>
<path style="fill-rule:nonzero;fill:rgb(12.156863%,46.666667%,70.588237%);fill-opacity:1;stroke-width:1;stroke-linecap:butt;stroke-linejoin:round;stroke:rgb(12.156863%,46.666667%,70.588237%);stroke-opacity:1;stroke-miterlimit:4;" d="M -0.0000686646 3.000282 C 0.796806 3.000282 1.558525 2.683876 2.121025 2.121376 C 2.683525 1.558876 2.999931 0.794228 2.999931 0.000282288 C 2.999931 -0.796593 2.683525 -1.558311 2.121025 -2.120811 C 1.558525 -2.683311 0.796806 -2.999718 -0.0000686646 -2.999718 C -0.796944 -2.999718 -1.558662 -2.683311 -2.121162 -2.120811 C -2.683662 -1.558311 -3.000069 -0.796593 -3.000069 0.000282288 C -3.000069 0.794228 -2.683662 1.558876 -2.121162 2.121376 C -1.558662 2.683876 -0.796944 3.000282 -0.0000686646 3.000282 Z M -0.0000686646 3.000282 " transform="matrix(1.333333,0,0,1.333333,158.125092,132.800405)"/>
<path style="fill-rule:nonzero;fill:rgb(12.156863%,46.666667%,70.588237%);fill-opacity:1;stroke-width:1;stroke-linecap:butt;stroke-linejoin:round;stroke:rgb(12.156863%,46.666667%,70.588237%);stroke-opacity:1;stroke-miterlimit:4;" d="M -0.000213623 3.000999 C 0.796661 3.000999 1.55838 2.684593 2.12088 2.122093 C 2.68338 1.559593 2.999786 0.794945 2.999786 0.000999451 C 2.999786 -0.795876 2.68338 -1.557594 2.12088 -2.120094 C 1.55838 -2.682594 0.796661 -2.999001 -0.000213623 -2.999001 C -0.794159 -2.999001 -1.558807 -2.682594 -2.121307 -2.120094 C -2.683807 -1.557594 -3.000214 -0.795876 -3.000214 0.000999451 C -3.000214 0.794945 -2.683807 1.559593 -2.121307 2.122093 C -1.558807 2.684593 -0.794159 3.000999 -0.000213623 3.000999 Z M -0.000213623 3.000999 " transform="matrix(1.333333,0,0,1.333333,135.238566,145.080699)"/>
<path style="fill-rule:nonzero;fill:rgb(12.156863%,46.666667%,70.588237%);fill-opacity:1;stroke-width:1;stroke-linecap:butt;stroke-linejoin:round;stroke:rgb(12.156863%,46.666667%,70.588237%);stroke-opacity:1;stroke-miterlimit:4;" d="M 0.000946045 2.99873 C 0.794891 2.99873 1.55954 2.685253 2.12204 2.122753 C 2.68454 1.557323 3.000946 0.795605 3.000946 -0.00127029 C 3.000946 -0.795216 2.68454 -1.559864 2.12204 -2.122364 C 1.55954 -2.684864 0.794891 -3.00127 0.000946045 -3.00127 C -0.795929 -3.00127 -1.557648 -2.684864 -2.120148 -2.122364 C -2.682648 -1.559864 -2.999054 -0.795216 -2.999054 -0.00127029 C -2.999054 0.795605 -2.682648 1.557323 -2.120148 2.122753 C -1.557648 2.685253 -0.795929 2.99873 0.000946045 2.99873 Z M 0.000946045 2.99873 " transform="matrix(1.333333,0,0,1.333333,197.416707,77.5681)"/>
<path style="fill-rule:nonzero;fill:rgb(12.156863%,46.666667%,70.588237%);fill-opacity:1;stroke-width:1;stroke-linecap:butt;stroke-linejoin:round;stroke:rgb(12.156863%,46.666667%,70.588237%);stroke-opacity:1;stroke-miterlimit:4;" d="M -0.00138855 3.001091 C 0.795486 3.001091 1.560135 2.684685 2.122635 2.122185 C 2.685135 1.559685 2.998611 0.795036 2.998611 0.001091 C 2.998611 -0.795784 2.685135 -1.557503 2.122635 -2.120003 C 1.560135 -2.682503 0.795486 -2.998909 -0.00138855 -2.998909 C -0.795334 -2.998909 -1.559982 -2.682503 -2.122482 -2.120003 C -2.684982 -1.557503 -3.001389 -0.795784 -3.001389 0.001091 C -3.001389 0.795036 -2.684982 1.559685 -2.122482 2.122185 C -1.559982 2.684685 -0.795334 3.001091 -0.00138855 3.001091 Z M -0.00138855 3.001091 " transform="matrix(1.333333,0,0,1.333333,246.494039,54.658702)"/>
<path style="fill-rule:nonzero;fill:rgb(12.156863%,46.666667%,70.588237%);fill-opacity:1;stroke-width:1;stroke-linecap:butt;stroke-linejoin:round;stroke:rgb(12.156863%,46.666667%,70.588237%);stroke-opacity:1;stroke-miterlimit:4;" d="M -0.000656128 2.999039 C 0.796219 2.999039 1.557938 2.682632 2.120438 2.120132 C 2.682938 1.557632 2.999344 0.795914 2.999344 -0.000961304 C 2.999344 -0.794907 2.682938 -1.559555 2.120438 -2.122055 C 1.557938 -2.684555 0.796219 -3.000961 -0.000656128 -3.000961 C -0.794601 -3.000961 -1.55925 -2.684555 -2.12175 -2.122055 C -2.68425 -1.559555 -3.000656 -0.794907 -3.000656 -0.000961304 C -3.000656 0.795914 -2.68425 1.557632 -2.12175 2.120132 C -1.55925 2.682632 -0.794601 2.999039 -0.000656128 2.999039 Z M -0.000656128 2.999039 " transform="matrix(1.333333,0,0,1.333333,190.211812,85.962219)"/>
<path style="fill:none;stroke-width:0.8;stroke-linecap:butt;stroke-linejoin:round;stroke:rgb(0%,0%,0%);stroke-opacity:1;stroke-miterlimit:4;" d="M -0.00137329 -0.00117493 L -0.00137329 3.499802 " transform="matrix(1.333333,0,0,1.333333,70.5448,194.400004)"/>
<path style=" stroke:none;fill-rule:nonzero;fill:rgb(0%,0%,0%);fill-opacity:1;" d="M 62.128906 209.132812 L 70.476562 209.132812 L 70.476562 210.238281 L 62.128906 210.238281 Z M 62.128906 209.132812 "/>
<path style=" stroke:none;fill-rule:nonzero;fill:rgb(0%,0%,0%);fill-opacity:1;" d="M 74.445312 212.757812 L 79.035156 212.757812 L 79.035156 213.863281 L 72.867188 213.863281 L 72.867188 212.757812 C 73.363281 212.242188 74.042969 211.546875 74.90625 210.679688 C 75.769531 209.808594 76.308594 209.246094 76.53125 208.992188 C 76.949219 208.523438 77.246094 208.121094 77.410156 207.792969 C 77.578125 207.464844 77.664062 207.144531 77.664062 206.828125 C 77.664062 206.308594 77.480469 205.890625 77.121094 205.566406 C 76.757812 205.238281 76.285156 205.074219 75.703125 205.074219 C 75.289062 205.074219 74.855469 205.148438 74.398438 205.289062 C 73.941406 205.433594 73.449219 205.648438 72.929688 205.941406 L 72.929688 204.613281 C 73.460938 204.398438 73.953125 204.238281 74.414062 204.132812 C 74.875 204.023438 75.296875 203.96875 75.679688 203.96875 C 76.683594 203.96875 77.488281 204.222656 78.085938 204.726562 C 78.683594 205.226562 78.984375 205.898438 78.984375 206.742188 C 78.984375 207.140625 78.910156 207.519531 78.757812 207.878906 C 78.609375 208.234375 78.339844 208.65625 77.941406 209.144531 C 77.835938 209.269531 77.488281 209.632812 76.90625 210.234375 C 76.328125 210.835938 75.507812 211.679688 74.445312 212.757812 Z M 74.445312 212.757812 "/>
<path style="fill:none;stroke-width:0.8;stroke-linecap:butt;stroke-linejoin:round;stroke:rgb(0%,0%,0%);stroke-opacity:1;stroke-miterlimit:4;" d="M -0.000457764 -0.00117493 L -0.000457764 3.499802 " transform="matrix(1.333333,0,0,1.333333,154.059204,194.400004)"/>
<path style=" stroke:none;fill-rule:nonzero;fill:rgb(0%,0%,0%);fill-opacity:1;" d="M 154.054688 205.011719 C 153.378906 205.011719 152.871094 205.34375 152.527344 206.011719 C 152.1875 206.675781 152.015625 207.675781 152.015625 209.015625 C 152.015625 210.347656 152.1875 211.347656 152.527344 212.011719 C 152.871094 212.679688 153.378906 213.011719 154.054688 213.011719 C 154.738281 213.011719 155.25 212.679688 155.589844 212.011719 C 155.929688 211.347656 156.101562 210.347656 156.101562 209.015625 C 156.101562 207.675781 155.929688 206.675781 155.589844 206.011719 C 155.25 205.34375 154.738281 205.011719 154.054688 205.011719 Z M 154.054688 203.96875 C 155.144531 203.96875 155.976562 204.398438 156.554688 205.261719 C 157.128906 206.125 157.414062 207.375 157.414062 209.015625 C 157.414062 210.652344 157.128906 211.898438 156.554688 212.761719 C 155.976562 213.625 155.144531 214.054688 154.054688 214.054688 C 152.964844 214.054688 152.132812 213.625 151.558594 212.761719 C 150.984375 211.898438 150.695312 210.652344 150.695312 209.015625 C 150.695312 207.375 150.984375 206.125 151.558594 205.261719 C 152.132812 204.398438 152.964844 203.96875 154.054688 203.96875 Z M 154.054688 203.96875 "/>
<path style="fill:none;stroke-width:0.8;stroke-linecap:butt;stroke-linejoin:round;stroke:rgb(0%,0%,0%);stroke-opacity:1;stroke-miterlimit:4;" d="M 0.000457764 -0.00117493 L 0.000457764 3.499802 " transform="matrix(1.333333,0,0,1.333333,237.573608,194.400004)"/>
<path style=" stroke:none;fill-rule:nonzero;fill:rgb(0%,0%,0%);fill-opacity:1;" d="M 235.890625 212.757812 L 240.480469 212.757812 L 240.480469 213.863281 L 234.308594 213.863281 L 234.308594 212.757812 C 234.808594 212.242188 235.488281 211.546875 236.347656 210.679688 C 237.210938 209.808594 237.753906 209.246094 237.972656 208.992188 C 238.394531 208.523438 238.6875 208.121094 238.855469 207.792969 C 239.023438 207.464844 239.105469 207.144531 239.105469 206.828125 C 239.105469 206.308594 238.925781 205.890625 238.5625 205.566406 C 238.199219 205.238281 237.726562 205.074219 237.148438 205.074219 C 236.734375 205.074219 236.296875 205.148438 235.839844 205.289062 C 235.382812 205.433594 234.894531 205.648438 234.375 205.941406 L 234.375 204.613281 C 234.902344 204.398438 235.398438 204.238281 235.855469 204.132812 C 236.316406 204.023438 236.738281 203.96875 237.121094 203.96875 C 238.128906 203.96875 238.929688 204.222656 239.53125 204.726562 C 240.128906 205.226562 240.429688 205.898438 240.429688 206.742188 C 240.429688 207.140625 240.351562 207.519531 240.203125 207.878906 C 240.054688 208.234375 239.78125 208.65625 239.386719 209.144531 C 239.277344 209.269531 238.933594 209.632812 238.351562 210.234375 C 237.769531 210.835938 236.949219 211.679688 235.890625 212.757812 Z M 235.890625 212.757812 "/>
<path style="fill:none;stroke-width:0.8;stroke-linecap:butt;stroke-linejoin:round;stroke:rgb(0%,0%,0%);stroke-opacity:1;stroke-miterlimit:4;" d="M 0.00019455 0.000900269 L -3.500782 0.000900269 " transform="matrix(1.333333,0,0,1.333333,38.589584,193.549581)"/>
<path style=" stroke:none;fill-rule:nonzero;fill:rgb(0%,0%,0%);fill-opacity:1;" d="M 11.011719 193.882812 L 19.359375 193.882812 L 19.359375 194.988281 L 11.011719 194.988281 Z M 11.011719 193.882812 "/>
<path style=" stroke:none;fill-rule:nonzero;fill:rgb(0%,0%,0%);fill-opacity:1;" d="M 25.8125 190.039062 L 22.492188 195.230469 L 25.8125 195.230469 Z M 25.464844 188.894531 L 27.121094 188.894531 L 27.121094 195.230469 L 28.507812 195.230469 L 28.507812 196.324219 L 27.121094 196.324219 L 27.121094 198.613281 L 25.8125 198.613281 L 25.8125 196.324219 L 21.425781 196.324219 L 21.425781 195.054688 Z M 25.464844 188.894531 "/>
<path style="fill:none;stroke-width:0.8;stroke-linecap:butt;stroke-linejoin:round;stroke:rgb(0%,0%,0%);stroke-opacity:1;stroke-miterlimit:4;" d="M 0.00019455 0.00121307 L -3.500782 0.00121307 " transform="matrix(1.333333,0,0,1.333333,38.589584,161.381195)"/>
<path style=" stroke:none;fill-rule:nonzero;fill:rgb(0%,0%,0%);fill-opacity:1;" d="M 11.011719 161.714844 L 19.359375 161.714844 L 19.359375 162.820312 L 11.011719 162.820312 Z M 11.011719 161.714844 "/>
<path style=" stroke:none;fill-rule:nonzero;fill:rgb(0%,0%,0%);fill-opacity:1;" d="M 23.332031 165.339844 L 27.917969 165.339844 L 27.917969 166.445312 L 21.75 166.445312 L 21.75 165.339844 C 22.246094 164.824219 22.925781 164.128906 23.789062 163.261719 C 24.652344 162.390625 25.191406 161.828125 25.414062 161.574219 C 25.835938 161.105469 26.128906 160.703125 26.292969 160.375 C 26.460938 160.046875 26.546875 159.726562 26.546875 159.410156 C 26.546875 158.894531 26.367188 158.472656 26.003906 158.148438 C 25.640625 157.820312 25.167969 157.65625 24.585938 157.65625 C 24.175781 157.65625 23.738281 157.730469 23.28125 157.871094 C 22.824219 158.015625 22.335938 158.230469 21.8125 158.523438 L 21.8125 157.195312 C 22.34375 156.980469 22.835938 156.820312 23.296875 156.714844 C 23.757812 156.605469 24.179688 156.550781 24.5625 156.550781 C 25.570312 156.550781 26.371094 156.804688 26.96875 157.308594 C 27.570312 157.808594 27.867188 158.480469 27.867188 159.324219 C 27.867188 159.722656 27.792969 160.101562 27.644531 160.460938 C 27.492188 160.816406 27.222656 161.238281 26.824219 161.726562 C 26.71875 161.851562 26.371094 162.214844 25.789062 162.816406 C 25.210938 163.417969 24.390625 164.261719 23.332031 165.339844 Z M 23.332031 165.339844 "/>
<path style="fill:none;stroke-width:0.8;stroke-linecap:butt;stroke-linejoin:round;stroke:rgb(0%,0%,0%);stroke-opacity:1;stroke-miterlimit:4;" d="M 0.00019455 -0.00140381 L -3.500782 -0.00140381 " transform="matrix(1.333333,0,0,1.333333,38.589584,129.212809)"/>
<path style=" stroke:none;fill-rule:nonzero;fill:rgb(0%,0%,0%);fill-opacity:1;" d="M 25.011719 125.425781 C 24.335938 125.425781 23.824219 125.757812 23.484375 126.425781 C 23.144531 127.089844 22.972656 128.089844 22.972656 129.429688 C 22.972656 130.761719 23.144531 131.757812 23.484375 132.425781 C 23.824219 133.09375 24.335938 133.425781 25.011719 133.425781 C 25.691406 133.425781 26.203125 133.09375 26.542969 132.425781 C 26.886719 131.757812 27.054688 130.761719 27.054688 129.429688 C 27.054688 128.089844 26.886719 127.089844 26.542969 126.425781 C 26.203125 125.757812 25.691406 125.425781 25.011719 125.425781 Z M 25.011719 124.382812 C 26.101562 124.382812 26.933594 124.8125 27.507812 125.675781 C 28.082031 126.539062 28.371094 127.789062 28.371094 129.429688 C 28.371094 131.066406 28.082031 132.3125 27.507812 133.175781 C 26.933594 134.039062 26.101562 134.46875 25.011719 134.46875 C 23.921875 134.46875 23.089844 134.039062 22.515625 133.175781 C 21.941406 132.3125 21.652344 131.066406 21.652344 129.429688 C 21.652344 127.789062 21.941406 126.539062 22.515625 125.675781 C 23.089844 124.8125 23.921875 124.382812 25.011719 124.382812 Z M 25.011719 124.382812 "/>
<path style="fill:none;stroke-width:0.8;stroke-linecap:butt;stroke-linejoin:round;stroke:rgb(0%,0%,0%);stroke-opacity:1;stroke-miterlimit:4;" d="M 0.00019455 -0.00109863 L -3.500782 -0.00109863 " transform="matrix(1.333333,0,0,1.333333,38.589584,97.044434)"/>
<path style=" stroke:none;fill-rule:nonzero;fill:rgb(0%,0%,0%);fill-opacity:1;" d="M 23.332031 101.003906 L 27.921875 101.003906 L 27.921875 102.109375 L 21.75 102.109375 L 21.75 101.003906 C 22.25 100.488281 22.929688 99.792969 23.789062 98.925781 C 24.652344 98.054688 25.195312 97.492188 25.414062 97.238281 C 25.835938 96.765625 26.128906 96.367188 26.296875 96.039062 C 26.464844 95.710938 26.546875 95.390625 26.546875 95.074219 C 26.546875 94.554688 26.367188 94.136719 26.003906 93.808594 C 25.640625 93.484375 25.167969 93.320312 24.585938 93.320312 C 24.175781 93.320312 23.738281 93.390625 23.28125 93.535156 C 22.824219 93.679688 22.335938 93.894531 21.816406 94.1875 L 21.816406 92.859375 C 22.34375 92.644531 22.839844 92.484375 23.296875 92.375 C 23.757812 92.269531 24.179688 92.214844 24.5625 92.214844 C 25.570312 92.214844 26.371094 92.464844 26.972656 92.96875 C 27.570312 93.472656 27.867188 94.144531 27.867188 94.988281 C 27.867188 95.386719 27.792969 95.765625 27.644531 96.125 C 27.496094 96.480469 27.222656 96.902344 26.828125 97.390625 C 26.71875 97.515625 26.375 97.878906 25.792969 98.480469 C 25.210938 99.082031 24.390625 99.921875 23.332031 101.003906 Z M 23.332031 101.003906 "/>
<path style="fill:none;stroke-width:0.8;stroke-linecap:butt;stroke-linejoin:round;stroke:rgb(0%,0%,0%);stroke-opacity:1;stroke-miterlimit:4;" d="M 0.00019455 -0.000785828 L -3.500782 -0.000785828 " transform="matrix(1.333333,0,0,1.333333,38.589584,64.876048)"/>
<path style=" stroke:none;fill-rule:nonzero;fill:rgb(0%,0%,0%);fill-opacity:1;" d="M 25.8125 61.367188 L 22.492188 66.554688 L 25.8125 66.554688 Z M 25.464844 60.222656 L 27.121094 60.222656 L 27.121094 66.554688 L 28.507812 66.554688 L 28.507812 67.648438 L 27.121094 67.648438 L 27.121094 69.941406 L 25.8125 69.941406 L 25.8125 67.648438 L 21.425781 67.648438 L 21.425781 66.382812 Z M 25.464844 60.222656 "/>
<path style="fill:none;stroke-width:0.8;stroke-linecap:butt;stroke-linejoin:round;stroke:rgb(0%,0%,0%);stroke-opacity:1;stroke-miterlimit:4;" d="M 0.00019455 -0.000473022 L -3.500782 -0.000473022 " transform="matrix(1.333333,0,0,1.333333,38.589584,32.707662)"/>
<path style=" stroke:none;fill-rule:nonzero;fill:rgb(0%,0%,0%);fill-opacity:1;" d="M 25.175781 32.390625 C 24.585938 32.390625 24.117188 32.59375 23.769531 32.996094 C 23.425781 33.398438 23.253906 33.953125 23.253906 34.65625 C 23.253906 35.351562 23.425781 35.90625 23.769531 36.3125 C 24.117188 36.71875 24.585938 36.921875 25.175781 36.921875 C 25.765625 36.921875 26.234375 36.71875 26.578125 36.3125 C 26.921875 35.90625 27.09375 35.351562 27.09375 34.65625 C 27.09375 33.953125 26.921875 33.398438 26.578125 32.996094 C 26.234375 32.59375 25.765625 32.390625 25.175781 32.390625 Z M 27.785156 28.265625 L 27.785156 29.464844 C 27.453125 29.308594 27.121094 29.191406 26.785156 29.109375 C 26.449219 29.023438 26.117188 28.984375 25.785156 28.984375 C 24.917969 28.984375 24.253906 29.277344 23.796875 29.863281 C 23.339844 30.449219 23.078125 31.335938 23.011719 32.519531 C 23.269531 32.140625 23.589844 31.851562 23.976562 31.648438 C 24.363281 31.449219 24.789062 31.347656 25.253906 31.347656 C 26.226562 31.347656 27 31.644531 27.566406 32.238281 C 28.132812 32.828125 28.417969 33.636719 28.417969 34.65625 C 28.417969 35.652344 28.121094 36.453125 27.53125 37.058594 C 26.941406 37.660156 26.15625 37.960938 25.175781 37.960938 C 24.050781 37.960938 23.191406 37.53125 22.597656 36.671875 C 22 35.808594 21.703125 34.558594 21.703125 32.921875 C 21.703125 31.386719 22.070312 30.164062 22.796875 29.25 C 23.527344 28.335938 24.503906 27.878906 25.734375 27.878906 C 26.0625 27.878906 26.398438 27.910156 26.734375 27.976562 C 27.070312 28.039062 27.421875 28.136719 27.785156 28.265625 Z M 27.785156 28.265625 "/>
<path style="fill:none;stroke-width:0.8;stroke-linecap:square;stroke-linejoin:miter;stroke:rgb(0%,0%,0%);stroke-opacity:1;stroke-miterlimit:4;" d="M 28.942383 145.798828 L 28.942383 7.201172 " transform="matrix(1.333333,0,0,1.333333,0,-0.000000000000014211)"/>
<path style="fill:none;stroke-width:0.8;stroke-linecap:square;stroke-linejoin:miter;stroke:rgb(0%,0%,0%);stroke-opacity:1;stroke-miterlimit:4;" d="M 224.241211 145.798828 L 224.241211 7.201172 " transform="matrix(1.333333,0,0,1.333333,0,-0.000000000000014211)"/>
<path style="fill:none;stroke-width:0.8;stroke-linecap:square;stroke-linejoin:miter;stroke:rgb(0%,0%,0%);stroke-opacity:1;stroke-miterlimit:4;" d="M 28.942383 145.798828 L 224.241211 145.798828 " transform="matrix(1.333333,0,0,1.333333,0,-0.000000000000014211)"/>
<path style="fill:none;stroke-width:0.8;stroke-linecap:square;stroke-linejoin:miter;stroke:rgb(0%,0%,0%);stroke-opacity:1;stroke-miterlimit:4;" d="M 28.942383 7.201172 L 224.241211 7.201172 " transform="matrix(1.333333,0,0,1.333333,0,-0.000000000000014211)"/>
</g>
</svg>
